<?xml version="1.0" standalone="no"?>
<!DOCTYPE svg PUBLIC "-//W3C//DTD SVG 1.1//EN" "http://www.w3.org/Graphics/SVG/1.1/DTD/svg11.dtd" >
<svg xmlns="http://www.w3.org/2000/svg">
<metadata>
Created by FontForge 20120731 at Fri Oct 21 10:38:19 2016
 By admin
</metadata>
<defs>
<font id="iconfont" horiz-adv-x="1024" >
  <font-face 
    font-family="iconfont"
    font-weight="500"
    font-stretch="normal"
    units-per-em="1024"
    panose-1="2 0 6 3 0 0 0 0 0 0"
    ascent="896"
    descent="-128"
    x-height="792"
    bbox="-0.5 -224 1392 896"
    underline-thickness="50"
    underline-position="-100"
    unicode-range="U+0078-E66B"
  />
<missing-glyph horiz-adv-x="374" 
d="M34 0v682h272v-682h-272zM68 34h204v614h-204v-614z" />
    <glyph glyph-name=".notdef" horiz-adv-x="374" 
d="M34 0v682h272v-682h-272zM68 34h204v614h-204v-614z" />
    <glyph glyph-name=".null" horiz-adv-x="0" 
 />
    <glyph glyph-name="nonmarkingreturn" horiz-adv-x="341" 
 />
    <glyph glyph-name="x" unicode="x" horiz-adv-x="1001" 
d="M281 543q-27 -1 -53 -1h-83q-18 0 -36.5 -6t-32.5 -18.5t-23 -32t-9 -45.5v-76h912v41q0 16 -0.5 30t-0.5 18q0 13 -5 29t-17 29.5t-31.5 22.5t-49.5 9h-133v-97h-438v97zM955 310v-52q0 -23 0.5 -52t0.5 -58t-10.5 -47.5t-26 -30t-33 -16t-31.5 -4.5q-14 -1 -29.5 -0.5
t-29.5 0.5h-32l-45 128h-439l-44 -128h-29h-34q-20 0 -45 1q-25 0 -41 9.5t-25.5 23t-13.5 29.5t-4 30v167h911zM163 247q-12 0 -21 -8.5t-9 -21.5t9 -21.5t21 -8.5q13 0 22 8.5t9 21.5t-9 21.5t-22 8.5zM316 123q-8 -26 -14 -48q-5 -19 -10.5 -37t-7.5 -25t-3 -15t1 -14.5
t9.5 -10.5t21.5 -4h37h67h81h80h64h36q23 0 34 12t2 38q-5 13 -9.5 30.5t-9.5 34.5q-5 19 -11 39h-368zM336 498v228q0 11 2.5 23t10 21.5t20.5 15.5t34 6h188q31 0 51.5 -14.5t20.5 -52.5v-227h-327z" />
    <glyph glyph-name="uniE600" unicode="&#xe600;" 
d="M513 619q44 89 93.5 128.5t130.5 39.5q92 0 157.5 -65.5t65.5 -157.5q0 -54 -18.5 -106.5t-46.5 -94t-75.5 -92t-90 -89t-106.5 -97.5t-110 -104q-45 45 -109.5 104t-106.5 97.5t-90 89t-76 92t-46.5 93.5t-18.5 106q0 93 65.5 158.5t157.5 65.5q81 0 130.5 -39.5
t93.5 -128.5z" />
    <glyph glyph-name="uniE601" unicode="&#xe601;" 
d="M508 827q-17 0 -27 -11q-10 -10 -15 -24l-103 -236l-275 -25q-10 -2 -17 -9q-9 -7 -10.5 -19t5.5 -25q8 -11 19 -21l10 -9l22 -19q22 -19 31 -26l36 -30q30 -26 94 -80l-30 -124q-6 -22 -12 -47q-7 -27 -11 -42q-4 -20 -8 -32l-4 -17q-2 -8 1.5 -15.5t11.5 -13.5
q7 -5 17 -6q2 -1 4 -1q7 0 14 4q5 2 17 9q11 5 31 17q10 6 40 23q27 16 44 25q46 26 115 66l232 -134l13 -5q8 -3 13 -3q13 0 24 6t8 23q-1 3 -4 17l-6 33q-5 22 -9 44q-4 20 -10 47q-15 72 -26 127l184 164q12 14 19 22q8 9 8 22t-7 19q-8 6 -25 11l-276 25l-99 237
q-2 3 -5 9q-4 6 -8 10q-4 6 -11 10t-15 4z" />
    <glyph glyph-name="uniE602" unicode="&#xe602;" 
d="M189 827v-886l323 306l323 -306v886h-646zM189 827z" />
    <glyph glyph-name="uniE603" unicode="&#xe603;" 
d="M512 889q-103 0 -196.5 -40t-161 -107.5t-107.5 -161t-40 -196.5t40 -196.5t107.5 -161t161 -107.5t196.5 -40t196.5 40t161 107.5t107.5 161t40 196.5t-40 196.5t-107.5 161t-161 107.5t-196.5 40zM766 347q0 -11 -5 -21.5t-10 -14.5l-5 -5l-219 -219l-35 35
q189 190 217 218q14 13 21.5 26t7.5 21l1 7v72l27 15v-134zM821 578q-2 -34 -29 -60.5t-53 -31.5v35q2 0 5.5 1.5t12 6t15.5 10.5t12.5 16.5t5.5 23.5q0 30 -18 53.5t-53 19.5q-34 -4 -67 -73l-26 -67q-1 -3 -3 -10l3 -15l1 -17q-3 -11 -11.5 -17.5t-19.5 -6.5
q-14 0 -23.5 9.5t-9.5 22.5q0 8 7.5 18.5t17.5 12.5l10 31q-30 -6 -46.5 -23.5t-16.5 -39.5q0 -25 18 -43t43.5 -18t43.5 18t18 43q-1 11 -6 27q-2 5 2 19.5t9 26.5l5 13l11 25h24v-188q0 -7 -4.5 -15.5t-8.5 -14.5l-5 -5l-279 -276l-203 205q248 247 275 274q9 9 17 14
t12 5l3 1h113q43 92 96 93q30 1 52 -9t32 -26.5t14 -33.5t4 -34z" />
    <glyph glyph-name="uniE604" unicode="&#xe604;" 
d="M219 369zM219 369zM357 448zM756 131q0 -12 -10 -19.5t-24 -7.5h-441q-15 0 -25 7.5t-10 19.5v11q0 11 10 19t25 8h441q14 0 24 -8t10 -19v-11zM246 310q0 -10 8 -17.5t19 -7.5h199q11 0 19 7.5t8 17.5v15q0 10 -8 17.5t-19 7.5h-199q-11 0 -19 -7.5t-8 -17.5v-15z
M865 256q-10 0 -17 -7.5t-7 -17.5v-18v-3v-373h-485v150q0 10 -7 17t-17 7h-154v747h193h2h19q10 0 17 7.5t7 17.5t-7 17t-17 7h-19v0h-219q-10 0 -17 -7t-7 -17v-796q0 -8 5 -14q1 -2 2 -3l178 -175q8 -7 18 -6h532q10 0 17.5 7t7.5 17v400v9v9q0 10 -7.5 17.5t-17.5 7.5z
M308 -129l-95 92h95v-92zM869 353q-10 0 -18 8l-116 116q-45 -31 -100 -31q-76 0 -129.5 53.5t-53.5 129.5t53.5 129.5t129 53.5t129 -53.5t53.5 -129.5q0 -68 -44 -119l114 -114q7 -7 7 -17.5t-7.5 -18t-17.5 -7.5zM634.5 758q-54.5 0 -93.5 -39t-39 -93.5t39 -93.5
t93.5 -39t93.5 39t39 93.5t-39 93.5t-93.5 39z" />
    <glyph glyph-name="uniE605" unicode="&#xe605;" 
d="M960 339l1 92h-91q-3 26 -10 52l83 35l-36 85l-83 -35q-12 19 -25 37l64 64l-64 66l-65 -64q-23 17 -47 31l33 85l-85 34l-34 -85q-22 6 -45 9v91h-92v-92q-26 -3 -52 -10l-35 84l-85 -36l36 -85q-22 -12 -41 -28l-66 65l-64 -66l66 -65q-17 -21 -30 -45l-86 34l-33 -86
l86 -34q-5 -19 -7 -39h-93v-92h93q3 -26 10 -51l-86 -36l36 -85l85 36q12 -20 25 -37l-66 -65l65 -66l66 65q22 -18 46 -31l-34 -86l86 -34l34 85q22 -6 44 -9v-91h92v91q27 3 52 10l36 -84l85 36l-36 84q22 13 42 28l65 -63l64 66l-65 63q17 22 30 46l84 -33l34 86l-85 33
q5 20 8 40h90zM653 607q33 0 56 -23t23 -56t-23 -56t-56 -23t-56.5 23t-23.5 56t23.5 56t56.5 23zM513.5 624q15.5 0 27 -11.5t11.5 -27t-11.5 -27t-27 -11.5t-27 11.5t-11.5 27t11.5 27t27 11.5zM375 607q33 0 56 -23t23 -56t-23 -56t-56 -23t-56.5 23t-23.5 56t23.5 56
t56.5 23zM277 386q0 16 11.5 27t27.5 11t27 -11t11 -27t-11 -27t-27 -11t-27.5 11t-11.5 27zM375 167q-33 0 -56.5 23.5t-23.5 56t23.5 56t56.5 23.5t56 -23.5t23 -56t-23 -56t-56 -23.5zM513.5 151q-15.5 0 -27 11t-11.5 27t11.5 27t27 11t27 -11t11.5 -27t-11.5 -27
t-27 -11zM513.5 321q-27.5 0 -46.5 19.5t-19 46.5t19 46.5t46.5 19.5t46.5 -19.5t19 -46.5t-19 -46.5t-46.5 -19.5zM653 167q-33 0 -56.5 23.5t-23.5 56t23.5 56t56.5 23.5t56 -23.5t23 -56t-23 -56t-56 -23.5zM710 347q-16 0 -27.5 11t-11.5 27t11.5 27t27.5 11t27 -11
t11 -27t-11 -27t-27 -11z" />
    <glyph glyph-name="uniE606" unicode="&#xe606;" horiz-adv-x="1025" 
d="M512 832q91 0 174 -35.5t143 -95.5t95.5 -143t35.5 -174t-35.5 -174t-95.5 -143t-143 -95.5t-174 -35.5t-174 35.5t-143 95.5t-95.5 143t-35.5 174t35.5 174t95.5 143t143 95.5t174 35.5zM512 896q-104 0 -199 -40.5t-163.5 -109t-109 -163.5t-40.5 -199t40.5 -199
t109 -163.5t163.5 -109t199 -40.5t199 40.5t163.5 109t109 163.5t40.5 199t-40.5 199t-109 163.5t-163.5 109t-199 40.5zM224 384zM144 384q0 33 23.5 56.5t56.5 23.5t56.5 -23.5t23.5 -56.5t-23.5 -56.5t-56.5 -23.5t-56.5 23.5t-23.5 56.5zM512 384zM432 384
q0 33 23.5 56.5t56.5 23.5t56.5 -23.5t23.5 -56.5t-23.5 -56.5t-56.5 -23.5t-56.5 23.5t-23.5 56.5zM800 384zM720 384q0 33 23.5 56.5t56.5 23.5t56.5 -23.5t23.5 -56.5t-23.5 -56.5t-56.5 -23.5t-56.5 23.5t-23.5 56.5z" />
    <glyph glyph-name="uniE607" unicode="&#xe607;" horiz-adv-x="1025" 
d="M1024 382v-2v-1v-1v0q-3 -13 -11 -22q-13 -15 -34 -37q-103 -106 -218 -166q-85 -45 -162 -59q-95 -18 -187 2q-144 32 -290 152q-70 58 -111 108q-23 28 0 56q11 14 34 37q104 106 217 166q86 45 163 59q94 18 187 -3q143 -31 290 -151q69 -57 111 -108q9 -9 11 -22v-1
v-1v-1v-1v-2v-2zM512.5 585q-79.5 0 -136 -56.5t-56.5 -136.5t56.5 -136.5t136 -56.5t135.5 56.5t56 136.5t-56 136.5t-135.5 56.5zM512 295q-40 0 -68 28.5t-28 68.5t28 68.5t68 28.5t68 -28.5t28 -68.5t-28 -68.5t-68 -28.5z" />
    <glyph glyph-name="uniE608" unicode="&#xe608;" 
d="M523 293q-111 0 -190 78.5t-79 189.5t79 190t190 79t189.5 -79t78.5 -190t-78.5 -189.5t-189.5 -78.5zM523 755q-80 0 -137 -57t-57 -137t57 -137t137 -57t137 57t57 137t-57 137t-137 57zM230 224q5 -3 15.5 -9.5t44 -21.5t69.5 -26t90.5 -18.5t109 -4t123 23
t134.5 56.5l-293 -286z" />
    <glyph glyph-name="uniE609" unicode="&#xe609;" 
d="M843 86q7 7 11 12q1 1 6 7q4 5 6 8q1 1 3 4l2 3l6 8q3 4 8 12l6 9q2 3 5 8l4 8q1 2 2.5 4.5t2.5 4.5l8 14q45 93 45 196q0 91 -35.5 174t-95.5 143t-143 95.5t-174 35.5t-173.5 -35.5t-142.5 -95.5t-95.5 -143t-35.5 -174q0 -106 48 -201q1 -1 2 -3v-2q3 -5 6 -11l1 -1
q1 -1 1 -2q6 -11 13 -21q0 -1 1 -3l1 -1q3 -4 7 -10q1 -2 4 -5q12 -17 24 -31l4 -5l8 -8q1 -2 5 -5q6 -7 13 -14q3 -3 6 -5q5 -5 8 -7l3 -3l3 -3l8 -6q6 -5 9 -7q3 -3 10 -8t9 -6q3 -3 7 -5l9 -6q5 -3 7 -4l15 -9q3 -2 7 -3q9 -5 11 -6q4 -2 7 -3q6 -3 13 -6q1 -1 2.5 -1.5
t2.5 -0.5q5 -3 16 -7q2 0 6 -2q5 -2 14 -5q2 0 5 -1q9 -3 19 -6l4 -1l15 -3l6 -1q9 -2 16 -3q1 0 3 -1h1q9 -1 20 -2h3l2 -1q8 -1 16 -1h6q11 -1 21 -1v0q9 0 20 1h6q8 0 16 1h3q1 0 2 1q11 1 19 2q1 0 2.5 0.5t2.5 0.5q8 1 15 3h3q2 0 3 1q12 2 18 4h2q9 3 18 5l6 2
q9 3 14 5q1 0 2.5 1t2.5 1q7 2 17 7q3 1 5 2q3 1 13 6q1 0 4 2q1 0 2 1q8 3 14 7l5 2q6 4 14 8q1 1 3 2t3 2q5 3 11 7q1 1 2.5 2t2.5 2q7 4 15 10l3 3q1 1 2 1q3 3 10 8q1 0 3 2l3 3q5 4 9 8q3 2 8 7l9 9l6 6q4 4 8 7q0 1 2 3.5t3 3.5zM510.5 826q89.5 0 171.5 -35t141 -94
t94 -141t35 -172q0 -102 -45 -193q-3 1 -10.5 4t-11.5 5q-30 9 -54.5 4t-41 -16t-46.5 -16t-71 5q-18 5 -32.5 8.5t-27 5.5t-21 3t-17.5 1h-14q-5 0 -13 -2.5t-10.5 -3t-11.5 -3.5t-11 -4q-4 90 59 172q15 20 29.5 37.5t26.5 29.5l21 21q10 10 18.5 16.5t13.5 10t10 7.5l4 3
l-13 -8q-13 -8 -27 -17.5t-37 -30t-45 -44.5q-26 -28 -47 -67q-3 -1 -6 5q-15 32 -5 79q13 64 74 92q15 8 41 12.5t47.5 14.5t38.5 35q4 10 7 19q-1 -100 -35 -189q-16 -41 -53 -65q-18 -12 -42 -15.5t-36 -2t-18 -1.5q3 -10 15.5 -17.5t30 -9.5t37 3t38.5 24t32 49
q22 52 30.5 120.5t2.5 110.5q3 13 -2 21v-2v-6q0 -4 -1.5 -9t-5.5 -13t-10 -16q-15 -17 -34 -21.5t-45.5 -5.5t-45.5 -8q-51 -14 -84 -62q-3 12 -6 23q-18 54 -54.5 107.5t-66.5 75.5q-5 9 -14 12l1 -1q2 -1 4 -4t4.5 -7.5t4.5 -13t3 -19.5q1 -25 -9 -45t-27.5 -44.5
t-25.5 -46.5q-21 -40 -20 -94.5t26 -87.5q9 -11 17.5 -19t15.5 -12t14 -7t11 -3.5t9 -1t5 -1.5q16 3 22 12q23 -67 55 -106q-69 -11 -206 1q-28 2 -50.5 10t-31.5 13.5t-28 7.5t-40 -7q-42 89 -42 188q0 90 35 172t94 141t141 94t171.5 35zM406 376q-2 27 -3 51t-0.5 43
t1 33.5t2 26.5t2.5 19t2 13l2 7l-4 -17q-4 -18 -7.5 -36.5t-6.5 -52.5t-2 -70q-1 -42 11 -87h-2q1 -11 -26.5 9t-42 57t2.5 108q5 19 19.5 45.5t22.5 52t4 56.5q-3 12 -7 20q61 -68 94 -158q15 -42 5 -91q-5 -23 -18.5 -46t-24 -36.5t-10.5 -15.5q10 -4 26 5t29 28
q2 -10 5 -18t5.5 -12.5t5.5 -9.5l3 -5q10 -10 18 -12q-20 -44 -28 -86l-3 3q-66 60 -75 176zM724 597zM698 480l-2 -1zM696 479zM357 672zM357 672zM357 673zM412 569zM412 571v-2v2z" />
    <glyph glyph-name="uniE60A" unicode="&#xe60a;" 
d="M512 883q-101 0 -193.5 -39.5t-159.5 -106.5t-106.5 -159.5t-39.5 -193.5t39.5 -193.5t106.5 -159.5t159.5 -106.5t193.5 -39.5t193.5 39.5t159.5 106.5t106.5 159.5t39.5 193.5t-39.5 193.5t-106.5 159.5t-159.5 106.5t-193.5 39.5zM294 698q0 19 7 25q2 3 4 6.5t4 5
t5 1.5t9.5 3t9.5 3h352q13 0 19 -6q5 0 9 -4t4 -9q6 -6 6 -25v-58q0 -13 -6 -19q0 -3 -3.5 -6.5t-3.5 -6.5q-3 0 -9.5 -3t-9.5 -3h-365q-12 0 -19 6q-6 0 -6 13q0 3 -3.5 9.5t-3.5 9.5v58zM800 102q0 -25 -6 -38q-4 -3 -10 -12.5t-10 -13.5q-12 -12 -38 -12h-442
q-25 0 -38 12.5t-19.5 25.5t-6.5 38v333q0 19 13 45q0 13 13 26l64 57h390l58 -57q10 -10 19 -20q13 -12 13 -44v-340zM563 429h-102v-96h-90v-96h90v-96h102v96h90v96h-90v96z" />
    <glyph glyph-name="uniE60B" unicode="&#xe60b;" 
d="M755 453q0 23 -17.5 39.5t-42.5 16.5l-3 -1h-4q-6 0 -15 -4h-2q-3 -2 -9 -5l-78 -43l43 78l5 10q4 10 4 17v3l1 4q0 24 -16.5 41.5t-39.5 17.5t-40 -18l-29 -31l-29 31q-17 18 -40 18t-39.5 -17.5t-16.5 -42.5l1 -3v-4q0 -6 4 -15q2 -5 5 -11l43 -78l-78 43l-10 5
q-10 4 -17 4h-3l-4 1q-24 0 -41.5 -16.5t-17.5 -39.5t18 -40l31 -29l-31 -29q-18 -17 -18 -40t17.5 -39.5t42.5 -16.5l3 1h4q6 0 15 4h2q3 2 9 5l78 43l-43 -78l-5 -10q-4 -10 -4 -17v-3l-1 -4q0 -24 16.5 -41.5t39.5 -17.5t40 18l29 31l29 -31q17 -18 40 -18t39.5 17.5
t16.5 42.5l-1 3v4q0 6 -4 15q-2 5 -5 11l-43 78l78 -43l10 -5q10 -4 17 -4h3l4 -1q24 0 41.5 16.5t17.5 39.5t-18 40l-31 29l31 29q18 17 18 40zM512 346q-16 0 -27 11t-11 27t11 27t27 11t27 -11t11 -27t-11 -27t-27 -11zM512 896q-104 0 -199 -40.5t-163.5 -109
t-109 -163.5t-40.5 -199t40.5 -199t109 -163.5t163.5 -109t199 -40.5t199 40.5t163.5 109t109 163.5t40.5 199t-40.5 199t-109 163.5t-163.5 109t-199 40.5zM806 315q0 -44 -32.5 -75.5t-78.5 -31.5h-5h-2v-1v-1v-5q0 -46 -31.5 -78.5t-75.5 -32.5q-39 0 -69 26
q-30 -26 -69 -26q-44 0 -75.5 32.5t-31.5 78.5v5v2v0h-1h-1h-5q-46 0 -78.5 31.5t-32.5 75.5q0 39 26 69q-26 30 -26 69q0 44 32.5 75.5t78.5 31.5h5h2v0v1v1v5q0 46 31.5 78.5t75.5 32.5q39 0 69 -26q30 26 69 26q44 0 75.5 -32.5t31.5 -78.5v-5v-2h1h1h5q46 0 78.5 -31.5
t32.5 -75.5q0 -39 -26 -69q26 -30 26 -69z" />
    <glyph glyph-name="uniE60C" unicode="&#xe60c;" 
d="M713 674q-48 27 -51 28q-55 27 -120 35q-51 7 -117 -12q-83 -23 -148 -83q-24 -22 -48 -59q-35 -54 -49 -116q-2 -9 -6 -32q-2 -10 7 -14q3 -1 4 1t2.5 8t2.5 8q4 7 13 18q2 2 6.5 6t5.5 6q4 4 16.5 10t28.5 6q18 1 25 -2q4 -2 10.5 -6t9.5 -6h4l-1 3q0 5 -4 11.5t-5 9.5
q-2 6 -3 12.5t-2 15t-2 12.5q0 1 2 20q1 8 10 26q1 3 5 7.5t6 6.5q2 3 5 6t7 5.5t6 4.5q8 7 14 9q3 2 10 3.5t9 2.5l5 3q1 0 1.5 1t1.5 1q5 1 21 3h2q1 -3 8 -2t8 1h11q10 0 11 -3q1 -1 3 -1h3q20 -7 25 -9q11 -4 17 -10q17 -15 20 -20q1 -2 3.5 -5t3.5 -4q3 -5 4 -9
q5 -26 5 -34q0 -12 -2 -15q-1 -1 -1 -12l1 -5l3 2q10 14 22 21q7 4 14 5q24 3 26 2q2 0 10 5q7 0 8 3v1q3 0 8 2t8 4q3 0 3 1q6 5 14 8q3 1 7 5l4 4t7 6q4 2 10 10q2 1 3.5 2t4 2t3.5 2q8 5 9 5q5 3 6 4h1q15 3 18.5 4t11.5 2q2 0 4 -1q1 0 3 -0.5t3 -1.5h3q4 1 5 -1
q0 -1 5 0q2 -3 7 -4t6 1q7 11 5 16v4q0 4 -1 5q-6 11 -8 12l-9 12l-3 3q-1 1 -1 2q-1 3 5 10q1 1 9 -1q4 -1 9 -6.5t6 -6t2 -3t2 -2.5q4 -11 4 -12q3 -2 3 -7t1 -5q1 -3 1 -13q0 -1 -1 -2v-2q0 -3 -2.5 -7.5t-3.5 -6.5q0 -3 5 -9q3 -3 8.5 -9.5t7.5 -8.5v-1v-2q1 -1 2 -2.5
t2 -3.5q2 -5 2 -6q1 -4 1 -7q2 -21 2 -25q0 -1 -3 -14v-2v-2l-1 -5l-3 -7q0 -2 -1 -6t-1 -6l-1 -2q-1 -1 -1 -2v-4q0 -1 0.5 -4t0.5 -4t-1.5 -2.5t-1.5 -2.5q1 -5 3 -28h30q4 0 10.5 -1t9.5 -1q6 0 9.5 3.5t2.5 9.5q-7 35 -11 51q-11 40 -34 80l-2 4h35q2 0 3 -3
q25 -48 34 -99q2 -6 5 -34q2 -10 13 -14q7 -2 16 -7t10 -18v-42q0 -8 -1 -14q-3 -13 -21 -19q-15 -6 -17 -7q-3 -2 -4.5 -5t-2.5 -8.5t-1 -6.5q-2 -6 -4.5 -18.5t-2.5 -14.5q-1 -3 -6.5 -27t-7.5 -37q-2 -7 -4.5 -22t-3.5 -23q-2 -7 -5.5 -20t-4.5 -19.5t-3 -18.5t-3 -15
q0 -4 -1.5 -10t-2.5 -8q0 -3 -3.5 -19.5t-5.5 -24.5q-4 -17 -7 -28q-4 -11 -19 -10h-5h-545q-10 0 -15 1q-9 2 -12 16q-7 33 -10 45q-1 8 -4 23t-4 21q-1 4 -2.5 10.5t-2.5 9.5q-1 5 -13 62q-11 50 -12 54q-1 6 -3 19.5t-4 20.5q-1 8 -5 22t-5 20q-2 10 -11 14l-12 4
q-21 6 -21 25v25v25q0 13 9 18q8 4 15 7q12 4 13 16q6 58 30 111q44 101 137 162q65 43 144 56q46 7 91 3q89 -8 164 -54q4 -2 4 -6v-33zM515 394h-365q-9 0 -14.5 -5t-5.5 -15v-11q0 -21 21 -21h726h3q15 1 17 14q1 5 1 19q0 9 -5.5 14t-13.5 5h-364zM367 420h10q7 0 14 4
q11 7 23 12q7 3 18 4q4 1 38 4q17 2 20 2q2 0 3 4q0 2 0.5 6.5t0.5 6.5q0 1 0.5 3t1.5 3q0 6 1 14q2 12 2 18q0 1 -0.5 2.5t-0.5 2.5q-2 18 -2 19q-2 7 -1 10l-2 5q0 1 -0.5 2t-1.5 2q-4 13 -5 14q-1 2 -4.5 6t-4.5 6q-4 8 -18 19q-2 2 -7.5 5t-7.5 5q-6 5 -17.5 8t-14.5 4
h-2h-9h-12q-6 -2 -15 -6q-1 0 -4 -2.5t-5 -2.5q-6 -3 -16 -11q-8 -6 -18 -23q-2 -3 -10 -23q-2 -7 -2 -10q0 -9 1 -18q1 -15 3 -26l4 -20q1 -1 1.5 -2.5t1.5 -1.5q2 -8 6 -14q1 -2 3 -8.5t6 -8.5v-2l3 -10q1 -2 4 -2h15zM606 317h-61q-8 0 -13 -5t-5 -13v-51q0 -19 19 -19
h108q7 0 12.5 4.5t7.5 11.5q0 4 1 9.5t2.5 12t1.5 10.5q4 20 4 22q0 8 -5 13t-13 5h-59zM423 317h-60q-10 0 -15 -8q-5 -7 -2 -19q4 -17 4 -18q0 -13 6 -30q4 -13 17 -13h109q8 0 13 5t5 13v53q0 7 -5 12t-13 5h-59zM768 229h51q3 0 7 1q9 4 13 20q1 3 4 19q5 26 5 32
q1 7 -3.5 11.5t-11.5 4.5h-106q-16 0 -19 -17q-2 -17 -4 -27q-5 -19 -4 -27q0 -7 5 -12t12 -5h51zM246 317h-53q-7 0 -11.5 -5.5t-3.5 -11.5q6 -28 12 -54q4 -17 18 -17h104q7 0 12.5 6t1.5 15q0 1 -1 4q-1 12 -3 23q-2 17 -2 19q0 9 -6 15t-16 6h-52zM268 204h-52
q-5 0 -9.5 -4.5t-4.5 -8.5q3 -20 4 -27q4 -17 9 -37q4 -11 16 -11h99q4 0 8 2q11 7 7 23q-5 23 -7 44q-2 19 -19 19h-51zM762 204h-48q-9 0 -15.5 -6.5t-7.5 -15.5q-1 -25 -7 -47q-1 -6 1 -11q4 -8 14 -8h98q2 0 5 1q11 3 14 19q3 9 7 27t4 21q2 8 -2.5 14t-12.5 6h-50z
M597 204h-52q-7 0 -12.5 -5t-5.5 -12v-54q0 -6 5.5 -11.5t11.5 -5.5h94q6 0 11 4.5t6 9.5t2.5 13.5t1.5 12.5l5 25q3 9 -2 16t-14 7h-51zM437 116h45q8 0 13 4.5t5 12.5v55q0 6 -5 11t-11 5h-104q-7 0 -12 -5t-5 -12q1 -3 2 -7.5t1 -6.5q6 -36 8 -42q4 -15 18 -15h45z
M771 439q2 12 2 13v4q0 2 -0.5 5t-0.5 4q-1 2 0 3q5 1 2 7q-1 2 0 8q1 1 5 11q0 4 1 7q1 2 2 6v2v1q0 1 1 2t1 2q-1 12 -2 22q0 1 -3 6q0 1 -0.5 2t-0.5 2q-5 10 -7 11q-13 13 -16 14q-1 1 -3.5 3t-3.5 3l-5 2l-3 1h-1l-1 1q-2 1 -6.5 1t-5.5 1h-2q-2 2 -5 2.5t-5.5 0t-6 -1
t-4.5 -1.5q-1 0 -12 -5q-1 -1 -3 -1.5t-3.5 -1t-2.5 -1.5q-2 -3 -6 -6t-5 -3q-15 -13 -18 -15q-2 -1 -4.5 -3.5t-4.5 -3.5q-3 -1 -7 -4t-6 -4q-5 -2 -7 -4l-7 -2q5 -9 12 -10q9 -2 10 -1h1q0 -1 1 -1l2 -2q14 1 17 4q1 1 2 1q3 -1 4.5 -1t3.5 2t4 2q1 1 15 8q2 -2 3.5 -4.5
t2 -4t0.5 -4.5v-5q-1 -2 -2 -5v-1v-2q0 -1 -1 -3v-1q0 -1 -2 -7.5t0 -7.5h-1q-1 -2 -1 -3q0 -8 1 -11q0 -2 2.5 -3.5t3.5 -0.5q6 4 9 7q18 13 19 15q8 9 17 9q6 0 6 -5q1 -16 1 -23q0 -1 2.5 -4.5t1.5 -5.5h1v-1q4 -7 6 -9q1 -1 3 -5t3 -5q1 0 3 -3q2 1 4 1zM739 90h-46
q-8 0 -13.5 -4.5t-6.5 -12.5q0 -2 -0.5 -6.5t-0.5 -7.5q0 -2 -7 -36q-1 -8 3 -13.5t13 -5.5h92q8 0 13.5 6t6.5 15v7q6 30 8 38t-3.5 14.5t-12.5 5.5h-46zM289 90h-47q-7 0 -11.5 -4.5t-4.5 -10.5q0 -5 2 -11q0 -3 3.5 -18t4.5 -23q4 -19 23 -19h86h3q18 1 14 19
q-5 29 -6 46q0 9 -6 15.5t-16 5.5h-45zM744 420q-1 17 -5 26q-6 9 -7 15q0 1 -5 4q-1 1 -3 -2q-2 -2 -8 -5t-8 -5q0 -1 -1 0q-3 1 -5 -2q0 -1 -2 -2h-6q-5 0 -7 -1q-4 0 -8.5 1.5t-4.5 4.5q-2 10 -4 13q-1 2 -1 13q0 2 0.5 7t0.5 7q0 6 -3 6q-5 2 -9 -1q-5 -4 -10 0h-2
q-9 -1 -11 -1q-5 -1 -8 -3q-2 -1 -6 -7q-1 -1 -3 -3.5t-3 -4.5q-7 -7 -13 -12q-3 -2 -8.5 -6t-7.5 -5q0 -1 -4 -3.5t-5.5 -4t-6.5 -2.5t-8 -3q-1 -1 -3 -2t-5 -1.5t-4 -0.5q-1 -1 -2.5 -2t-2.5 -1q-2 -1 -3 -1q-9 1 -12 -3q0 -1 -5 -1h-5h-7q-1 0 -41 -4q-3 0 -11 -1t-12 -1
l-7 -1q-1 -2 -2 -2.5t-3 -0.5h-3q-1 0 -6 -1v-1h316zM588 90q-38 0 -42 1q-7 0 -13 -6t-6 -14v-50q0 -7 5 -12t12 -5h77q6 0 11 4.5t6 11.5q3 15 6 31q4 19 2 27q-3 12 -16 12h-42zM445 4h39q6 0 11 4.5t5 10.5v55q0 7 -5 11.5t-12 4.5h-85q-6 0 -10.5 -3.5t-4.5 -8.5
q-1 -9 0 -21q0 -2 0.5 -5t1.5 -6t1 -5l5 -24q4 -13 19 -13h35zM246 423q16 -3 37 -3h46h1v1q-18 15 -19 16q-6 5 -19 12q-10 6 -19 11q-2 1 -10 2q-1 0 -4 0.5t-4 0.5q-13 6 -24 -3q0 -1 -1 -1h-1q-4 -2 -5 -2q-7 -5 -13 -17q-1 -2 -3 -11q0 -1 1 -6h19h18zM585 481
q4 4 19 18l5 6q-15 10 -16 11q-7 4 -11 4q-11 -2 -22 -10l-2 -2q-2 -2 -4 -2q-4 -2 -16 -15q-5 -6 -14 -19q-1 -1 -15 -22q15 1 16 2q1 0 7 3q3 -3 8.5 0.5t7.5 3.5zM273 460q9 -5 19 -11q13 -7 19 -12q1 -1 19 -16v-1h-1z" />
    <glyph glyph-name="uniE60D" unicode="&#xe60d;" 
d="M982 583q-39 92 -109.5 162.5t-161.5 108.5q-95 40 -198.5 40t-198.5 -40q-91 -38 -161.5 -108.5t-109.5 -162.5q-40 -94 -40 -198t40 -198q39 -92 109.5 -162.5t161.5 -109.5q95 -40 198.5 -40t198.5 40q91 39 161.5 109.5t109.5 162.5q40 94 40 198t-40 198zM942 203
q-35 -83 -99.5 -148t-148.5 -100q-87 -37 -182 -37t-181 37q-84 35 -148.5 100t-100.5 148q-36 87 -36 182t36 182q36 83 100.5 147.5t148.5 100.5q86 37 181 37t182 -37q84 -36 148.5 -100.5t99.5 -147.5q37 -87 37 -182t-37 -182zM389 171l302 198l-302 232v-430z" />
    <glyph glyph-name="uniE60E" unicode="&#xe60e;" 
d="M898 671h-772q-25 0 -43.5 -18t-18.5 -44v-450q0 -26 18.5 -44t43.5 -18h772q25 0 43.5 18t18.5 44v450q0 26 -18.5 44t-43.5 18zM367 622h114v-31h-114v31zM592 392q5 -3 5 -8t-5 -8l-151 -87q-2 -1 -4.5 -1t-4.5 1q-5 3 -5 8v174q0 5 5 8t9 0zM305 140h-114v31h114v-31
zM305 591h-114v31h114v-31zM481 140h-114v31h114v-31zM657 140h-114v31h114v-31zM657 591h-114v31h114v-31zM833 140h-114v31h114v-31zM833 591h-114v31h114v-31zM743 -64z" />
    <glyph glyph-name="uniE60F" unicode="&#xe60f;" horiz-adv-x="1000" 
d="M862 508q3 59 -20 61q-42 98 -131.5 159t-200.5 61q-97 0 -180 -48t-131 -131t-48 -181t48 -180.5t131 -131t180.5 -48.5t180.5 48.5t131 131t48 180.5q0 40 -8 79zM217 429q0 54 19 104q4 -2 15.5 -6.5t16.5 -9t5 -12.5q0 -27 1.5 -44t6.5 -37t17.5 -30t31.5 -10
q3 0 10 -3.5t18 -14.5t17 -27q3 -5 9 -5t17.5 2.5t18.5 2.5q5 0 5 -4.5t-2.5 -19.5t-2.5 -29q0 -16 20.5 -39t41.5 -37l20 -15q0 -35 3 -59q-120 2 -204 87.5t-84 205.5zM581 145q8 30 11.5 41.5t11 26.5t19.5 24q23 22 11.5 41t-34.5 16q-11 -1 -14 12.5t-12 13.5
q-10 1 -34 22.5t-36 26.5l-18 12q-19 12 -32 13q-6 0 -13 -1.5t-13 -3.5t-11 -3t-8 0t-3 5q0 13 -6 81v4q-1 1 1 0q7 -2 19 -2q8 0 11.5 14t10.5 14q6 1 28.5 -4.5t27.5 -2.5q1 2 6 -6q3 -4 9 -15q24 -40 32 -40q10 0 10 40q0 4 -1.5 14t-1.5 18t3 13q7 11 15.5 25.5t14 24
t11 18.5t7.5 14t1.5 6.5t-8 2.5t-19 0t-20.5 -4q-3 -1 -3 -7t-5 -7q-37 -8 -56 9q-9 8 -3 17q4 6 18.5 10t26.5 10.5t14 21.5q2 24 5 59q78 -12 139.5 -61t89.5 -121q-117 -86 -41 -153q20 -18 44 -55q-25 -68 -79.5 -117.5t-125.5 -66.5z" />
    <glyph glyph-name="uniE610" unicode="&#xe610;" 
d="M511.5 832q-99.5 0 -184 -49t-133.5 -133.5t-49 -183.5q0 -95 45 -176t121 -131q36 -31 65 -70q30 -43 56 -88q6 -28 28 -46t51 -18q30 0 53 19.5t28 48.5q14 47 51 88q37 42 77 72q6 4 12 9l11 7h-2q2 1 3 2q63 52 98 125.5t35 157.5q0 99 -49 183.5t-133 133.5
t-183.5 49zM511.5 262q-84.5 0 -144 59.5t-59.5 144t59.5 144t144 59.5t144 -59.5t59.5 -144t-59.5 -144t-144 -59.5z" />
    <glyph glyph-name="uniE611" unicode="&#xe611;" 
d="M840 540l138 80q19 11 32.5 3.5t13.5 -27.5v-401q0 -22 -13.5 -28.5t-32.5 5.5l-138 79q-23 14 -34.5 26.5t-11.5 29.5v179q0 18 11 29t35 25zM840 540zM620 691h-523q-40 0 -68.5 -28.5t-28.5 -68.5v-420q0 -40 28.5 -68.5t68.5 -28.5h523q40 0 68.5 28.5t28.5 68.5v420
q0 40 -28.5 68.5t-68.5 28.5zM305 456q-6 -27 -25 -46.5t-44 -25.5q-48 -10 -81.5 24.5t-23.5 80.5q5 27 24.5 46t44.5 23q48 12 81 -21t24 -81z" />
    <glyph glyph-name="uniE612" unicode="&#xe612;" 
d="M512 265l416 347q-1 0 -3.5 0.5t-3.5 0.5h-818q-1 0 -3.5 -0.5t-3.5 -0.5zM958 576q0 4 -2 11l-295 -246l295 -295q2 7 2 9v521zM68 587q-2 -7 -2 -11v-521q0 -1 2 -9l295 295zM633 318l-109 -91q-5 -4 -12 -4t-12 4l-108 90l-298 -297q7 -2 9 -2h818q2 0 9 2z" />
    <glyph glyph-name="uniE613" unicode="&#xe613;" 
d="M950 334q2 -5 2 -10v-366q0 -33 -27.5 -57t-60.5 -24h-219h-264h-219q-33 0 -60.5 24t-27.5 57v366q0 5 2 10q-33 38 -52.5 96t-19.5 109l211 357h597l210 -357q0 -51 -19.5 -109t-52.5 -96zM127 -42q0 -10 11.5 -18.5t23.5 -8.5h702q13 0 24 8.5t11 18.5v337
q-17 -7 -35 -7q-77 0 -126 36.5t-49 106.5q0 -70 -49.5 -106.5t-126.5 -36.5t-126.5 36.5t-49.5 106.5q0 -70 -49 -106.5t-126 -36.5q-18 0 -35 7v-337zM782 842h-5h-533l-187 -317q4 -65 36 -124t69 -59q20 0 39 3.5t39 12t32.5 27.5t12.5 46q0 23 15.5 38.5t37 15.5
t37 -15.5t15.5 -38.5q0 -27 12.5 -46.5t32.5 -28t38.5 -12t39.5 -3.5t39.5 3.5t39 12t32.5 28t12 46.5q0 23 15.5 38.5t37.5 15.5t37 -15.5t15 -38.5q0 -27 12.5 -46t33 -27.5t39 -12t38.5 -3.5q37 0 69 59t36 124zM862 547h-698q-11 0 -18.5 8t-7.5 19t7.5 19t18.5 8h698
q11 0 18.5 -8t7.5 -19t-7.5 -19t-18.5 -8zM862 547z" />
    <glyph glyph-name="uniE614" unicode="&#xe614;" 
d="M290 454l-55 -54q-7 -7 -7 -17.5t7 -17.5l454 -461q7 -7 17 -7t17 7l66 67q8 7 8 17t-7 17l-372 378l371 386q7 7 7 17t-7 17l-66 65q-7 8 -17 8t-17 -7z" />
    <glyph glyph-name="uniE615" unicode="&#xe615;" 
d="M512 794zM410 793.5q0 42.5 30 72.5t72 30t72 -30t30 -72.5t-30 -72.5t-72 -30t-72 30t-30 72.5zM512 384zM410 384q0 42 30 72t72 30t72 -30t30 -72t-30 -72t-72 -30t-72 30t-30 72zM512 77q-42 0 -72 -30t-30 -72.5t30 -72.5t72 -30t72 30t30 72.5t-30 72.5t-72 30z
" />
    <glyph glyph-name="uniE616" unicode="&#xe616;" 
d="M549 377q-46 0 -78.5 -34t-32.5 -81.5t32.5 -81.5t78.5 -34t78.5 34t32.5 81.5t-32.5 81.5t-78.5 34zM882 569h-444q0 32 -22 54.5t-52 22.5h-74q-31 0 -53 -22.5t-22 -54.5h-74q-30 0 -52 -22.5t-22 -54.5v-461q0 -32 22 -54.5t52 -22.5h741q31 0 53 22.5t22 54.5v461
q0 32 -22 54.5t-53 22.5zM549 69q-77 0 -131 56.5t-54 136.5q0 79 54 135.5t131 56.5t131 -56.5t54 -135.5q0 -80 -54 -136.5t-131 -56.5z" />
    <glyph glyph-name="uniE617" unicode="&#xe617;" horiz-adv-x="1075" 
d="M756 535l-188 261q-11 15 -29 16h-1h-1h-1q-18 -1 -29 -16l-188 -262q-10 -13 -7.5 -28.5t15 -25t28 -7t24.5 15.5l159 220l158 -219q9 -13 24 -15.5t27.5 7t15 25.5t-6.5 28zM869 -205v1h1q14 11 14 30l-1 322q0 16 -11.5 27.5t-27 11.5t-26.5 -11t-11 -26l1 -272
l-256 85q-15 5 -29 -2t-18.5 -22t3 -29t21.5 -20l306 -100q17 -6 32 4h1q0 1 1 1zM1073 422v1v1h-1v1q-6 17 -24 23l-307 98q-15 5 -29.5 -2t-19.5 -22t2 -29t23 -18l258 -83l-159 -218q-10 -13 -7.5 -28t15 -24t28.5 -6.5t25 15.5l190 259q11 15 6 32zM570 -61
q-5 15 -18.5 22t-28.5 2l-256 -85v272q1 15 -10 26t-27 11t-27 -11.5t-11 -27.5l-1 -322q-1 -19 14 -30l1 -1l1 -1q15 -10 33 -4l305 100q15 6 22.5 20t2.5 29zM382 522q-5 15 -19 22t-29 2l-308 -98q-17 -6 -24 -23v-1q0 -1 -1 -1v-1q-5 -17 7 -32l189 -259
q10 -13 25.5 -15.5t28.5 6.5t15 24t-7 28l-159 218l258 83q15 4 22 18t2 29zM382 522z" />
    <glyph glyph-name="uniE618" unicode="&#xe618;" 
d="M1016 -126l-292 294q58 78 74.5 173t-12.5 188t-99 164q-77 76 -180 103.5t-206 0t-180 -104t-104.5 -180t0 -206.5t104.5 -180q70 -70 163 -99t188 -12.5t173 75.5l292 -295q8 -7 18 -7t17 7l44 44q7 7 7 17.5t-7 17.5zM195 198q-86 86 -86 208t86 208t208 86t208 -86
t86 -208t-86 -208t-208 -86t-208 86z" />
    <glyph glyph-name="uniE619" unicode="&#xe619;" 
d="M514 183l-378 378l-74 -74l450 -450l450 450l-72 72z" />
    <glyph glyph-name="uniE61A" unicode="&#xe61a;" horiz-adv-x="1025" 
d="M113 -155l-1 185q-112 128 -112 291q0 95 40.5 181.5t109 149t163.5 100t199 37.5t199 -37.5t163.5 -100t109 -149t40.5 -181.5t-40.5 -181.5t-109 -149t-163.5 -99.5t-199 -37q-94 0 -182 30zM338 -24l11 -4q78 -29 163 -29q115 0 212.5 50.5t154 138t56.5 190
t-56.5 189.5t-154 138t-212.5 51t-212.5 -51t-154 -138t-56.5 -190q0 -137 99 -243l12 -13l1 -114z" />
    <glyph glyph-name="uniE61B" unicode="&#xe61b;" 
d="M271 19q-76 46 -119 120t-43 158q0 91 49.5 168t134 122t184 45t183.5 -45t133.5 -122t49.5 -168t-49.5 -168.5t-133.5 -122.5t-184 -45q-36 0 -72 7l-133 -92v143zM321 -32l17 12h-1l57 41v0h3l1 -1q22 -5 50 -7l18 -2h10q131 0 224 84t93 202t-93 201.5t-224 83.5
t-224 -83.5t-93 -201.5q0 -14 2 -31v-5q2 -14 6 -28l1 -5q5 -15 10 -28l1 -3q12 -28 30 -54l2 -2q9 -12 19 -24l2 -2q12 -13 23 -23h1q13 -11 26 -21h1q16 -11 33 -20l2 -1l3 -2v-4v-75v-1zM837 163q18 41 24 85v2l1 1q39 64 39 137q0 118 -93 202t-224 84q-56 0 -110 -18
l-1 -1h-1q-56 0 -108 -15l-6 12q100 72 226 72q99 0 183.5 -45t134 -122.5t49.5 -168.5q0 -135 -103 -233z" />
    <glyph glyph-name="uniE61C" unicode="&#xe61c;" 
d="M522.5 776q-96.5 0 -185 -37.5t-152 -101.5t-101.5 -152t-38 -185t38 -185.5t101.5 -152t152 -101.5t185 -38t185 38t152 101.5t101.5 152t38 185.5t-38 185t-101.5 152t-152 101.5t-185 37.5zM708 81q-28 -28 -112 3.5t-170.5 118t-118 170.5t-4.5 112q3 2 11.5 11
t12.5 13t12.5 10.5t14 8.5t14.5 3t16.5 -2.5t17.5 -10.5t19 -19q18 -23 26 -39.5t4.5 -29.5t-9 -20.5t-19.5 -20.5l-5 -5q-25 -26 69 -120t120 -69q2 2 5 6q13 13 20.5 18.5t20.5 9t29.5 -4t39.5 -26.5q12 -9 19 -19t10.5 -17.5t2 -16.5t-3 -14.5t-8.5 -14t-10.5 -12.5
t-12.5 -12.5t-11 -10.5z" />
    <glyph glyph-name="uniE61D" unicode="&#xe61d;" 
d="M850 -66h-676q-49 0 -80.5 31.5t-31.5 80.5v676q0 49 31.5 80.5t80.5 31.5h676q49 0 80.5 -31.5t31.5 -80.5v-676q0 -49 -31.5 -80.5t-80.5 -31.5zM100 684v-75h150l-73 182q-36 -10 -56.5 -38.5t-20.5 -68.5zM250 796l75 -187h112l-75 187h-112zM437 796l75 -187h112
l-74 187h-113zM624 796l76 -187h112l-75 187h-113zM924 684q0 50 -31 81t-81 31l75 -187h37v75zM924 572h-824v-488q0 -50 31 -81t81 -31h600q50 0 81.5 31t31.5 81zM362 459l338 -187l-338 -188v375z" />
    <glyph glyph-name="uniE61E" unicode="&#xe61e;" 
d="M504.5 684q81.5 0 139 -75t57.5 -181t-57.5 -181t-139 -75t-139.5 75t-58 181t58 181t139.5 75zM504 741q-105 0 -179 -91.5t-74 -221.5q0 -79 29.5 -147t80.5 -111q25 -21 53 -34q43 -21 90 -21t91 21q23 11 44 27q54 42 86.5 112.5t32.5 152.5q0 130 -74.5 221.5
t-179.5 91.5zM258 114zM626 153l-61 -29l100 -49l192 -70q14 -5 24.5 -20t10.5 -30v-20q0 -19 -29 -19h-309h-100h-290q-28 0 -28 19v20q0 15 10.5 30t23.5 20l173 70l106 48l-65 29l-60 -24l-173 -70q-30 -11 -51 -40.5t-21 -62.5v-20q0 -35 24.5 -55.5t60.5 -20.5h290h100
h309q37 0 61.5 20.5t24.5 55.5v20q0 33 -21 62.5t-52 40.5l-192 70z" />
    <glyph glyph-name="uniE61F" unicode="&#xe61f;" 
d="M1024 331v104l-103 1q-4 29 -12 58l95 40l-40 97l-96 -40q-13 23 -28 43l73 72l-73 75l-74 -73q-25 20 -54 36l39 96l-97 39l-39 -97q-25 7 -51 10v104h-104v-104q-30 -4 -59 -12l-41 96l-96 -41l41 -97q-25 -14 -47 -32l-75 74l-73 -75l75 -74q-19 -24 -33 -51l-98 38
l-38 -97l98 -39q-5 -22 -8 -45l-106 1v-105h105q4 -30 12 -58l-97 -41l40 -97l97 41q13 -22 28 -42l-74 -74l73 -75l75 74q25 -20 53 -36l-39 -97l97 -39l39 97q25 -6 51 -10v-104h104v104q30 4 59 12l41 -96l96 41l-40 96q25 14 47 32l74 -73l73 75l-73 72q18 25 33 52
l96 -37l38 97l-96 38q6 22 9 46h103zM674 636q37 0 63.5 -26.5t26.5 -64t-26.5 -64t-63.5 -26.5t-63.5 26.5t-26.5 64t26.5 64t63.5 26.5zM516 655q18 0 30.5 -13t12.5 -31t-12.5 -31t-30.5 -13t-31 13t-13 31t13 31t31 13zM358 636q37 0 63.5 -26.5t26.5 -64t-26.5 -64
t-64 -26.5t-63.5 26.5t-26 64t26 64t64 26.5zM247 384q0 18 13 31t31 13t30.5 -13t12.5 -31t-12.5 -31t-30.5 -13t-31 13t-13 31zM358 135q-38 0 -64 26.5t-26 64t26 64t63.5 26.5t64 -26.5t26.5 -64t-26.5 -64t-63.5 -26.5zM516 116q-18 0 -31 13t-13 31t13 31t31 13
t30.5 -13t12.5 -31t-12.5 -31t-30.5 -13zM516 311q-31 0 -53 21.5t-22 52.5t22 53t53 22t52.5 -22t21.5 -53t-21.5 -52.5t-52.5 -21.5zM674 135q-37 0 -63.5 26.5t-26.5 64t26.5 64t63.5 26.5t63.5 -26.5t26.5 -64t-26.5 -64t-63.5 -26.5zM739 339q-18 0 -31 13t-13 31
t13 31t31 13t30.5 -13t12.5 -31t-12.5 -31t-30.5 -13zM739 339z" />
    <glyph glyph-name="uniE620" unicode="&#xe620;" 
d="M952 150h-72q-6 52 -46 87.5t-93.5 35.5t-93 -35.5t-46.5 -87.5h-54q-22 0 -37.5 15.5t-15.5 37.5v475q0 22 15.5 37.5t37.5 15.5h405q22 0 37.5 -15.5t15.5 -37.5v-475q0 -22 -15.5 -37.5t-37.5 -15.5v0zM406 150h-36q-7 52 -46.5 87.5t-93 35.5t-93.5 -35.5t-46 -87.5
h-37q-14 0 -24.5 10.5t-10.5 24.5v194q0 34 32 93.5t75 106t69 46.5h211q15 0 25.5 -10t10.5 -25v-405q0 -14 -10.5 -24.5t-25.5 -10.5v0zM336 537q-56 3 -122 0q-14 0 -39.5 -28t-46.5 -66.5t-21 -63.5v-18h229v176zM230 220q37 0 62.5 -25.5t25.5 -62t-25.5 -62.5t-62 -26
t-62.5 26t-26 62.5t26 62t62 25.5v0zM745 220q39 0 66 -27t27 -65t-27 -65t-65.5 -27t-65.5 27t-27 65t27 65t65 27v0zM745 220z" />
    <glyph glyph-name="uniE621" unicode="&#xe621;" horiz-adv-x="1392" 
d="M795 493h402v-69h-402v69zM918 -17l-4 4h-788q-24 0 -40 16t-16 39v729q0 24 16 41.5t40 17.5h1123q23 0 39.5 -16t16.5 -40v-437l3 -3q30 -18 49 -42l14 -17v513q0 45 -32 76.5t-76 31.5h-1155q-44 0 -76 -31.5t-32 -76.5v-763q0 -45 32 -76.5t76 -31.5h855l-11 14
q-14 17 -34 52zM795 341h119v-70h-119v70zM795 643h402v-70h-402v70zM1162 330q-97 0 -164 -66.5t-67 -162.5q0 -94 68.5 -161.5t162.5 -67.5q97 0 163.5 66.5t66.5 162.5t-67.5 162.5t-162.5 66.5zM1158 -38q-8 -8 -21.5 -8t-23.5 8l-98 97q-8 8 -8 21t8 21t21.5 8t24.5 -8
l76 -76l150 146q8 7 21.5 7t24.5 -7q8 -8 8 -21t-8 -21zM444 290q-72 0 -124 52t-52 125t52 125.5t124.5 52.5t124 -52.5t51.5 -125.5t-51.5 -125t-124.5 -52zM444 586q-48 0 -82.5 -35t-34.5 -84t34.5 -84t83 -35t82.5 35t34 84t-34 84t-83 35zM679 206q-17 0 -25 14
l-96 158q-7 11 -4 22.5t13.5 18t22.5 3.5t18 -14l96 -158q6 -10 3 -22t-13 -18q-7 -4 -15 -4zM679 206q-4 0 -7 1l-97 24q-11 3 -17.5 13.5t-3.5 22t13.5 18t22.5 3.5l96 -25q12 -3 18 -13.5t3 -21.5q-2 -10 -10 -16t-18 -6zM557 149q-4 0 -9 1q-11 4 -16.5 14.5t-2.5 22.5
l26 81q3 12 14 17.5t22.5 2t17 -14.5t2.5 -22l-26 -82q-6 -20 -28 -20zM557 149q-17 0 -25 14l-78 137q-6 10 -3 22t13.5 18t22 2.5t18.5 -13.5l78 -137q6 -10 2.5 -21.5t-13.5 -17.5q-7 -4 -15 -4zM210 206q-8 0 -15 4q-11 6 -14 18t4 22l96 158q6 11 17.5 14t22 -3.5
t13.5 -18t-3 -22.5l-96 -158q-9 -14 -25 -14zM210 206q-10 0 -18 6t-11 16q-3 11 3.5 21.5t18.5 13.5l96 25q11 3 21.5 -3.5t13.5 -18t-3 -22t-18 -13.5l-96 -24q-3 -1 -7 -1zM331 149q-21 0 -28 20l-25 82q-4 11 1.5 22t17.5 14.5t22.5 -2t14.5 -17.5l25 -81
q4 -12 -1.5 -22.5t-17.5 -14.5q-4 -1 -9 -1zM331 149q-8 0 -14 4q-11 6 -14 17.5t3 21.5l78 137q6 10 18 13.5t22.5 -2.5t13.5 -18t-3 -22l-78 -137q-9 -14 -26 -14z" />
    <glyph glyph-name="uniE622" unicode="&#xe622;" 
d="M850 424q-33 0 -59 -19t-37 -49h-77q2 15 2 28q0 46 -23.5 85t-62.5 60l29 97q12 -2 24 -2q43 0 72.5 29.5t29.5 72t-29.5 72t-72 29.5t-72 -29.5t-29.5 -72.5q0 -31 17.5 -56.5t45.5 -37.5l-29 -96q-30 13 -64 13q-63 0 -110 -43l-152 152l-2 -2q28 30 28 70
q0 43 -29.5 72.5t-72 29.5t-72 -29.5t-29.5 -72t29.5 -72.5t72.5 -30q40 0 70 28l-6 -5l152 -151q-43 -47 -43 -111q0 -55 34 -99l-130 -105q-31 40 -81 40q-42 0 -72 -30t-30 -72t30 -72t72 -30t72 30t30 72q0 26 -13 49l131 106q49 -53 121 -53q36 0 68 15l46 -104
q-23 -13 -37.5 -36.5t-14.5 -51.5q0 -43 30 -72.5t72.5 -29.5t72 29.5t29.5 72t-29.5 72t-72.5 29.5q-18 0 -36 -6l-46 104q59 34 77 99h76q-2 -9 -2 -19q0 -42 30 -72t72 -30t72 30t30 72t-30 72t-72 30v0zM850 424zM231 665l245 -245zM231 665zM629 665l-70 -217zM629 665
zM782 344l-214 10zM782 344zM644 106l-76 173zM644 106zM413 297l-182 -146zM413 297z" />
    <glyph glyph-name="uniE623" unicode="&#xe623;" 
d="M97 -4q0 117 65 214.5t170 145.5q97 -49 180 -49q91 0 180 56q105 -48 170 -145.5t65 -214.5q0 -36 -46 -64t-119 -42.5t-161.5 -21.5t-177 -1t-161.5 20t-119 41t-46 61zM706 432q-44 -44 -90 -62q-12 -3 -33 -8.5t-38.5 -9t-32.5 -3.5t-34 3.5t-43 9.5t-34 8
q-46 18 -90 62q-37 28 -62 90q-21 52 -21 104t21 104q19 46 62 90q56 41 90 55q52 21 111 21q62 0 104 -21q48 -24 90 -55q43 -44 62 -90q21 -52 21 -104t-21 -104q-25 -62 -62 -90z" />
    <glyph glyph-name="uniE624" unicode="&#xe624;" 
d="M0 288q0 -139 68.5 -257t186.5 -186.5t257 -68.5t257 68.5t186.5 186.5t68.5 257t-68.5 257t-186.5 186.5t-257 68.5t-257 -68.5t-186.5 -186.5t-68.5 -257zM43 288q0 95 37 182t100 150t150 100t182 37t182 -37t150 -100t100 -150t37 -182q0 -157 -94 -282
q-22 104 -95 182t-174 107q49 28 78 77t29 108q0 88 -62.5 150.5t-150.5 62.5t-150.5 -62.5t-62.5 -150.5q0 -59 29 -108t78 -77q-101 -29 -174 -107t-95 -182q-94 125 -94 282zM855 -32q-65 -70 -154 -109.5t-189 -39.5t-189 39.5t-154 109.5h4q16 127 112.5 213t226.5 86
t226.5 -86t112.5 -213h4zM341 480q0 71 50 121t121 50t121 -50t50 -121t-50 -121t-121 -50t-121 50t-50 121z" />
    <glyph glyph-name="uniE625" unicode="&#xe625;" horiz-adv-x="1025" 
d="M680 426q0 69 -49 117.5t-118.5 48.5t-118.5 -48.5t-49 -117.5t49 -117.5t118.5 -48.5t118.5 48.5t49 117.5zM512 800q-104 0 -198.5 -40.5t-163.5 -109t-109.5 -163.5t-40.5 -199t40.5 -199t109.5 -163.5t163.5 -109t198.5 -40.5t199 40.5t163.5 109t109 163.5t40.5 199
t-40.5 199t-109 163.5t-163.5 109t-199 40.5zM786 -56h-37q2 14 2 26q0 99 -70 168t-169 69t-169 -69t-70 -168q0 -12 2 -26h-37q-1 14 -1 26q0 98 62.5 173t156.5 95q-64 18 -105.5 71.5t-41.5 121.5q0 83 59.5 142t143.5 59t143.5 -59t59.5 -142q0 -68 -41 -121.5
t-106 -71.5q95 -20 157 -95t62 -173q0 -12 -1 -26z" />
    <glyph glyph-name="uniE626" unicode="&#xe626;" 
d="M604 275q-38 9 -49 47q-12 38 18 69q27 27 43.5 68.5t16.5 85.5q0 62 -34 101.5t-87 39.5t-87 -39.5t-34 -101.5q0 -44 16 -85.5t43 -67.5q2 -1 3 -3q27 -30 16 -67q-5 -18 -18 -30.5t-30 -16.5q-92 -17 -151.5 -58.5t-59.5 -73.5q0 -61 302 -61t302 61q0 32 -59.5 73.5
t-150.5 58.5zM512 896q-104 0 -199 -40.5t-163.5 -109t-109 -163.5t-40.5 -199t40.5 -199t109 -163.5t163.5 -109t199 -40.5t199 40.5t163.5 109t109 163.5t40.5 199t-40.5 199t-109 163.5t-163.5 109t-199 40.5zM512 43q-59 0 -104 2t-92 8t-77 16.5t-49 29t-19 44.5
q0 51 71 101t170 70q15 3 19 19q5 17 -9 31q0 1 -1 2q-32 32 -50.5 80t-18.5 99q0 78 45 129t115 51t115 -51t45 -129q0 -52 -19 -101t-53 -81q-13 -13 -8 -30q5 -16 20 -19q99 -19 170 -69.5t71 -101.5q0 -58 -85.5 -79t-255.5 -21z" />
    <glyph glyph-name="uniE627" unicode="&#xe627;" 
d="M462 -134q-47 43 -100 89t-98 85q-52 44 -106 88q-10 -1 -20 -1q-8 -1 -18 -1h-15q-25 0 -41 15.5t-16 36.5v234h1l-1 1q0 26 16.5 42.5t40.5 16.5h53q85 72 154 130q30 25 58.5 48.5t52.5 42.5q23 20 38 33q16 13 20 16q28 20 45 18t27 -16.5t13.5 -36t3.5 -39.5v-750
q0 -18 -6.5 -38t-20 -31.5t-34 -9.5t-47.5 27zM762 416q19 -26 30.5 -53.5t11.5 -66.5q0 -37 -12 -66.5t-30 -54.5q-8 -10 -16 -18t-21 -8q-17 0 -28.5 12.5t-11.5 28.5q0 8 3 15h-1q4 10 10.5 19.5t12.5 19t10.5 22t4.5 30.5q0 17 -4.5 29.5t-10.5 22.5t-12.5 19.5
t-9.5 19.5q-3 6 -3 15q0 16 11.5 28t28.5 12q13 0 21 -7.5t16 -18.5zM814 0q-12 -8 -26 -8q-19 0 -32.5 13.5t-13.5 31.5q0 21 16 35q1 1 2 1.5t2 0.5l1 1q26 18 48 42t38.5 52.5t26 60.5t9.5 66q0 69 -35 126.5t-88 94.5q-20 14 -20 37q0 19 13.5 32.5t32.5 13.5
q15 0 27 -10q35 -24 64.5 -56t51 -69.5t33.5 -80.5t12 -88q0 -46 -12 -89t-34 -81t-51.5 -70t-64.5 -56zM814 0z" />
    <glyph glyph-name="uniE628" unicode="&#xe628;" 
d="M961 -104l-272 272q86 100 86 231q0 97 -47.5 178.5t-129.5 129.5t-178.5 48t-178.5 -48t-129.5 -129.5t-47.5 -178t47.5 -178.5t129.5 -129.5t178 -47.5q115 0 208 67l275 -274zM106 399.5q0 129.5 92 221.5t221.5 92t221.5 -92t92 -221.5t-92 -221.5t-221.5 -92
t-221.5 92t-92 221.5z" />
    <glyph glyph-name="uniE629" unicode="&#xe629;" 
d="M512 896q-104 0 -199 -40.5t-163.5 -109t-109 -163.5t-40.5 -199t40.5 -199t109 -163.5t163.5 -109t199 -40.5t199 40.5t163.5 109t109 163.5t40.5 199t-40.5 199t-109 163.5t-163.5 109t-199 40.5zM596 92l-2 -2l-426 585l160 116l426 -585l-2 -1l21 -193zM765 23l-4 37
l-29 -22z" />
    <glyph glyph-name="uniE62A" unicode="&#xe62a;" 
d="M177 52q0 -13 9.5 -22.5t23.5 -9.5h33q13 0 23 9.5t10 22.5v74l-99 37v-111zM828 757h-1v0q-16 -1 -31 -12l-646 -246q-33 -1 -56.5 -39t-23.5 -92q0 -51 21 -88t52 -42v2l6 -2h1l27 -11l38 -14l581 -222q15 -11 31 -12v0h1q35 0 65.5 52t47.5 141.5t17 195.5t-17 195.5
t-47.5 141.5t-65.5 52zM823.5 58q-26.5 0 -45 87.5t-18.5 211t18.5 211t45 87.5t45.5 -87.5t19 -211t-19 -211t-45.5 -87.5z" />
    <glyph glyph-name="uniE62B" unicode="&#xe62b;" horiz-adv-x="1025" 
d="M1024 386h-426v426h-172v-426h-426v-172h426v-426h172v426h426v172z" />
    <glyph glyph-name="uniE62C" unicode="&#xe62c;" 
d="M956 335l-195 85q-9 4 -12.5 13t0.5 17.5t13 12t17 0.5l131 -57q-9 145 -110 250q-55 58 -127 90t-152 34q-131 3 -237.5 -70.5t-149.5 -196.5q-3 -9 -12 -13.5t-18 -1t-13 12t-1 17.5q23 66 66 122q42 56 99 96q120 84 267 80q91 -2 173 -39q79 -36 139 -99t92 -144
q33 -84 31 -174zM769 22q57 40 99 96q43 56 66 122q3 9 -1 17.5t-13 12t-18 -1t-12 -13.5q-43 -123 -149.5 -196.5t-237.5 -70.5q-102 2 -189.5 52.5t-140 135.5t-59.5 186l131 -57q8 -3 17 0.5t13 12t0.5 17.5t-12.5 13l-195 85l-1 -35q-2 -90 31 -174q32 -81 92 -144
t139 -99q82 -37 173 -39q6 -1 11 -1q141 0 256 81z" />
    <glyph glyph-name="uniE62D" unicode="&#xe62d;" 
d="M750 740l-545 -403q-16 -12 -16 -32.5t16 -32.5l545 -402q20 -15 42 -4t22 36v805q0 25 -22 36.5t-42 -3.5z" />
    <glyph glyph-name="uniE62E" unicode="&#xe62e;" 
d="M747 -63l-447 447l447 448v-895zM747 -63z" />
    <glyph glyph-name="uniE62F" unicode="&#xe62f;" 
d="M474 840q0 -19 -19 -38l-335 -291l335 -291q14 -14 15 -31.5t-9 -31.5q-13 -14 -31 -15.5t-32 8.5l-373 330q-19 9 -19 37q0 19 19 38l373 330q15 13 34 10.5t29 -17.5q3 -7 6.5 -16t5 -14t1.5 -8zM1018 840q0 -19 -19 -38l-335 -291l335 -291q14 -14 15.5 -31.5
t-8.5 -31.5q-14 -14 -32 -15.5t-32 8.5l-373 330q-19 9 -19 37q0 19 19 38l373 330q15 13 34.5 10.5t29.5 -17.5q2 -7 5.5 -16t5 -14t1.5 -8z" />
    <glyph glyph-name="uniE630" unicode="&#xe630;" 
d="M962 -66l-450 450l450 450h-450l-450 -450l450 -450h450zM962 -66z" />
    <glyph glyph-name="uniE631" unicode="&#xe631;" 
d="M951 -111l-878 436v71l878 483v-161l-652 -351v-5l652 -312v-161z" />
    <glyph glyph-name="uniE632" unicode="&#xe632;" 
d="M128 384l507 -512h261l-508 512l508 512h-261z" />
    <glyph glyph-name="uniE633" unicode="&#xe633;" 
d="M556 658q5 0 14 -1t33.5 -10t44.5 -25t39.5 -51t26.5 -83q1 0 -5 10t-19 28t-30.5 39t-45 46t-58.5 47zM802 297v207v9q0 6 -4 24.5t-10.5 36.5t-21 42.5t-34.5 46.5t-52.5 45.5t-72.5 41.5q-1 3 -3 9.5t-11 23t-20.5 29.5t-32.5 23t-46 10q-13 0 -24.5 -2.5t-19.5 -6
t-16.5 -11.5t-13 -12.5t-11 -16t-8.5 -15.5t-8 -17t-7 -15q-8 -4 -21 -11t-46 -31t-58.5 -50.5t-46 -68t-20.5 -84.5v-208q-4 -3 -10.5 -8t-23.5 -22.5t-31 -37.5t-28.5 -52.5t-19.5 -68.5h836q0 26 -21 74q-31 71 -94 116zM239 273v228q0 38 18.5 74t44.5 60.5t52.5 44
t45.5 28.5l18 9q4 8 8.5 22.5t8.5 23.5t11 19.5t19 15t30 4.5t32.5 -8.5t21.5 -21t11.5 -25t5.5 -20.5l1 -9q53 -20 92 -50t57 -58t28.5 -53t12.5 -41l1 -15v-228q40 -29 65 -59t30 -46l5 -16h-719q11 33 36 63.5t44 44.5zM383 58h45q0 -3 0.5 -7.5t4.5 -16.5t11 -21
t21 -16.5t33 -7.5t33 7t21 17t11.5 21t5.5 16.5t1 7.5h44q0 -4 -1 -12t-8 -27.5t-18 -34.5t-34.5 -27.5t-53.5 -12.5q-18 0 -33 4t-26 10.5t-20 15t-14.5 18t-10 19t-7 18t-3.5 15t-1 10.5z" />
    <glyph glyph-name="uniE634" unicode="&#xe634;" 
d="M512 806q-115 0 -212 -56.5t-153.5 -153.5t-56.5 -212t56.5 -212t153.5 -153.5t212 -56.5t212 56.5t153.5 153.5t56.5 212t-56.5 212t-153.5 153.5t-212 56.5zM515 120q-10 0 -72.5 54t-62.5 65q0 15 100 292q-56 71 -66 83q-9 9 -4 21.5t23 12.5h164q19 0 23.5 -12.5
t-4.5 -21.5l-66 -83q100 -277 100 -292q0 -11 -62.5 -65t-72.5 -54z" />
    <glyph glyph-name="uniE635" unicode="&#xe635;" 
d="M512 115q-76 0 -130 54t-54 130.5t54 130.5t130 54t130 -54t54 -130.5t-54 -130.5t-130 -54zM512 423q-51 0 -87.5 -36t-36.5 -87.5t36.5 -87.5t87.5 -36t87.5 36t36.5 87.5t-36.5 87.5t-87.5 36zM582 686v-41q0 -22 12 -40.5t33 -27.5q13 -5 28 -5q30 0 52 21l26 26
l98 -98l-26 -26q-15 -16 -19.5 -38t4 -42.5t27 -33t40.5 -12.5h40v-139h-40q-22 0 -40.5 -12.5t-27 -33t-4 -42.5t19.5 -38l26 -26l-98 -99l-26 26q-22 22 -52 22q-15 0 -28 -6q-21 -8 -33 -26.5t-12 -41.5v-39h-140v39q0 23 -12 41.5t-33 26.5q-13 6 -28 6q-30 0 -52 -22
l-26 -26l-98 99l26 26q15 16 19.5 38t-4 42.5t-27 33t-40.5 12.5h-40v139h40q22 0 40.5 12.5t27 33t4 42.5t-19.5 38l-26 26l98 98l26 -26q22 -21 52 -21q15 0 28 5q21 9 33 27.5t12 40.5v41h140zM582 747h-140q-24 0 -42 -19.5t-18 -45.5v-37q0 -8 -8 -11q-3 -1 -5 -1
q-5 0 -9 3l-26 26q-18 18 -43 18t-43 -18l-98 -98q-18 -18 -18 -43.5t18 -42.5l26 -26q6 -6 2.5 -14t-11.5 -8h-37q-25 0 -44 -18t-19 -43v-139q0 -25 19 -43t44 -18h37q8 0 11.5 -8t-2.5 -14l-26 -26q-18 -18 -18 -43t18 -43l98 -99q18 -17 43 -17t43 17l26 26q4 4 9 4
q2 0 5 -1q8 -3 8 -12v-36q0 -26 18 -45t42 -19h140q24 0 42 19t18 45v36q0 9 8 12q3 1 5 1q5 0 9 -4l26 -26q18 -17 43 -17t43 17l98 99q18 18 18 43t-18 43l-26 26q-6 6 -2.5 14t11.5 8h37q25 0 44 18t19 43v139q0 25 -19 43t-44 18h-37q-8 0 -11.5 8t2.5 14l26 26
q18 17 18 42.5t-18 43.5l-98 98q-18 18 -43 18t-43 -18l-26 -26q-4 -3 -9 -3q-2 0 -5 1q-8 3 -8 11v37q0 26 -18 45.5t-42 19.5z" />
    <glyph glyph-name="uniE636" unicode="&#xe636;" 
d="M876 662q74 -75 111 -169q37 -95 37 -193q0 -96 -37 -193q-35 -91 -111 -169q-80 -78 -171 -113q-95 -37 -193 -37q-96 0 -193 37q-91 35 -169 111q-76 77 -113 171q-37 97 -37 193t37 193q37 94 113 171q75 74 169 111q95 37 193 37q96 0 193 -37q94 -39 171 -113v0z
M224 12q58 -58 134 -90q72 -29 154 -29q77 0 154 29q76 32 134 90t90 134q29 72 29 154q0 77 -29 154q-32 76 -90 134q-61 61 -136 90q-71 29 -153 29q-77 0 -154 -29q-76 -32 -134.5 -90t-89.5 -134q-29 -72 -29 -154q0 -77 29 -154q30 -73 91 -134v0zM783 643l80 -82
l-607 -605l-81 80z" />
    <glyph glyph-name="uniE637" unicode="&#xe637;" 
d="M502 -128q-101 0 -194 40t-160 107t-107 160t-40 195.5t39.5 196t107 161t160.5 108t196 40.5q102 0 195.5 -40.5t161 -108t107.5 -161t40 -196t-40 -195.5t-108 -160t-161.5 -107t-196.5 -40zM504 831q-88 0 -172 -38t-145.5 -100t-99.5 -146t-38 -172t38 -171.5
t99.5 -145.5t145 -99.5t170.5 -37.5q88 0 173 37.5t148.5 99.5t102 145.5t38.5 171t-38 171.5t-101 146.5t-147.5 100.5t-173.5 38zM793 622l-171 -352q-9 -13 -16 -16l-347 -167q-9 -4 -13 -4q-17 0 -26 9q-19 15 -7 39l169 355q4 12 16 16l349 164q24 13 39 -6
q9 -9 11 -20t-4 -18zM504 444q-29 0 -49 -20t-20 -49.5t20 -49.5t49 -20t49.5 20t20.5 49.5t-20.5 49.5t-49.5 20z" />
    <glyph glyph-name="uniE638" unicode="&#xe638;" 
d="M512.5 -182q97.5 0 187 38t153.5 102.5t102.5 153.5t38.5 186.5t-38.5 186.5t-103 153.5t-153.5 102.5t-186.5 38t-186.5 -38t-153.5 -102.5t-102.5 -153.5t-38 -186.5t38 -186.5t102.5 -153.5t153.5 -102.5t186.5 -38zM513 -212q-104 0 -198.5 40.5t-163 109t-109 163
t-40.5 198t40.5 198t109 163t163 109t198.5 40.5t198.5 -40.5t162.5 -109t108.5 -163t40.5 -198t-40.5 -198t-108.5 -163t-162.5 -109t-198.5 -40.5v0zM549 423q50 62 59 73q7 7 3 18t-20 11h-73h-72q-16 0 -20.5 -11t3.5 -18l58 -73q-88 -245 -88 -258q0 -10 55.5 -57.5
t64 -47.5t63.5 47.5t55 57.5q0 6 -22 70.5t-44 125.5z" />
    <glyph glyph-name="uniE639" unicode="&#xe639;" 
d="M512 832q34 0 81.5 -19t90 -42.5t103.5 -47.5t115 -33q3 -125 -28 -246t-85.5 -217t-125 -171t-149.5 -119q-116 57 -206 173.5t-139.5 268.5t-46.5 311q57 10 120.5 34.5t107.5 47.5t89 41.5t73 18.5zM512 895q-25 0 -57 -9.5t-54.5 -19.5t-65.5 -31q-45 -21 -71 -33
t-70.5 -27.5t-82.5 -21.5q-23 -4 -38 -21.5t-15 -40.5q-2 -127 28 -253q30 -122 86 -231q57 -109 135 -192q82 -87 178 -135q14 -7 29 -7q16 0 31 8q87 50 164.5 131.5t134.5 184.5q127 231 121 495q0 23 -15.5 40t-37.5 21q-35 5 -74 18.5t-63 25t-67 32.5q-44 23 -68 34
t-61 21.5t-67 10.5z" />
    <glyph glyph-name="uniE63A" unicode="&#xe63a;" 
d="M1011 483l-403 314q-44 35 -95.5 35t-95.5 -35l-404 -314q-10 -7 -11.5 -20.5t6.5 -23.5t20 -12t22 5l78 61v-367q0 -93 42 -141t132 -48h424q89 0 129.5 48.5t40.5 142.5v365l78 -61q8 -6 19 -6q14 0 23 12q8 10 6.5 24t-11.5 21zM640 0h-256v257h256v-257zM832 129
q0 -129 -106 -129h-22v259q0 3 -1 7.5t-4.5 15t-9 18t-18 14t-28.5 6.5h-263q-35 0 -52 -27q-8 -14 -8 -33v-260h-18q-50 0 -80 35.5t-30 93.5v413l262 205q28 22 58.5 22t57.5 -23l262 -203v-414zM704 260v-1v1z" />
    <glyph glyph-name="uniE63B" unicode="&#xe63b;" 
d="M456 829h-358q-14 0 -24 -10t-10 -24v-358q0 -14 10 -23.5t24 -9.5h358q14 0 24 9.5t10 23.5v358q0 14 -10 24t-24 10zM926 829h-358q-14 0 -24 -10t-10 -24v-358q0 -14 10 -23.5t24 -9.5h358q14 0 23.5 9.5t9.5 23.5v358q0 14 -9.5 24t-23.5 10zM456 365h-358
q-14 0 -24 -10t-10 -24v-358q0 -14 10 -24t24 -10h358q14 0 24 10t10 24v358q0 14 -10 24t-24 10zM926 365h-358q-14 0 -24 -10t-10 -24v-358q0 -14 10 -24t24 -10h358q14 0 23.5 10t9.5 24v358q0 14 -9.5 24t-23.5 10z" />
    <glyph glyph-name="uniE63C" unicode="&#xe63c;" 
d="M512.5 659q96.5 0 178.5 -47.5t129.5 -129.5t47.5 -178.5t-47.5 -178.5t-129.5 -129.5t-178.5 -47.5t-178.5 47.5t-129.5 129.5t-47.5 178.5t47.5 178.5t129.5 129.5t178.5 47.5z" />
    <glyph glyph-name="uniE63D" unicode="&#xe63d;" 
d="M388 832h248v-896h-248v896z" />
    <glyph glyph-name="uniE63E" unicode="&#xe63e;" 
d="M512 730q-120 0 -222 -51.5t-161.5 -140t-59.5 -192.5q0 -93 47.5 -173.5t129.5 -133.5q-1 -57 0 -169q107 71 160 103q52 -11 106 -11q120 0 222 51.5t161.5 139.5t59.5 192.5t-59.5 193t-161.5 140t-222 51.5zM299.5 287q-24.5 0 -41.5 17t-17 41.5t17 41.5t41.5 17
t42 -17t17.5 -41.5t-17.5 -41.5t-42 -17zM521 287q-24 0 -41.5 17t-17.5 41.5t17.5 41.5t41.5 17t41.5 -17t17.5 -41.5t-17.5 -41.5t-41.5 -17zM742.5 287q-24.5 0 -42 17t-17.5 41.5t17.5 41.5t42 17t41.5 -17t17 -41.5t-17 -41.5t-41.5 -17z" />
    <glyph glyph-name="uniE63F" unicode="&#xe63f;" 
d="M846 711h-671q-46 0 -79 -33t-33 -79v-448q0 -46 33 -79t79 -33h220l116 -141l115 141h220q47 0 79.5 33t32.5 79v448q0 46 -32.5 79t-79.5 33zM256.5 290q-35.5 0 -60.5 25t-25 60.5t25 60.5t60.5 25t60.5 -25t25 -60.5t-25 -60.5t-60.5 -25zM509.5 290
q-35.5 0 -60.5 25t-25 60.5t25 60.5t60.5 25t60.5 -25t25 -60.5t-25 -60.5t-60.5 -25zM761.5 290q-35.5 0 -60.5 25t-25 60.5t25 60.5t60.5 25t60.5 -25t25 -60.5t-25 -60.5t-60.5 -25z" />
    <glyph glyph-name="uniE640" unicode="&#xe640;" 
d="M768 544q0 119 -84.5 203.5t-203.5 84.5t-203.5 -84.5t-84.5 -203.5q0 -110 73.5 -191.5t182.5 -93.5v-67h-128q-13 0 -22.5 -9.5t-9.5 -22.5t9.5 -22.5t22.5 -9.5h128v-160q0 -13 9.5 -22.5t22.5 -9.5t22.5 9.5t9.5 22.5v160h128q13 0 22.5 9.5t9.5 22.5t-9.5 22.5
t-22.5 9.5h-128v67q109 12 182.5 93.5t73.5 191.5zM256 544q0 93 65.5 158.5t158.5 65.5t158.5 -65.5t65.5 -158.5t-65.5 -158.5t-158.5 -65.5t-158.5 65.5t-65.5 158.5z" />
    <glyph glyph-name="uniE641" unicode="&#xe641;" 
d="M-53 853zM789 351v163q0 55 -21.5 105t-58 86.5t-86 58t-104.5 21.5h-10q-113 0 -192.5 -79.5t-79.5 -191.5v-163h-95v-559h745v559h-98zM599 -106h-169l41 181q-41 24 -41 73q0 34 25 59t60 25t59.5 -25t24.5 -59q0 -49 -42 -73zM653 351h-280v163q0 55 39.5 95t96.5 40
h10q27 0 52 -10.5t43 -29t28.5 -43t10.5 -52.5v-163z" />
    <glyph glyph-name="uniE642" unicode="&#xe642;" 
d="M332 306l-1 3l-1 4v2v9v3l1 4l2 4l1 4l3 5l3 4v3v3v4l2 4l1 5l1 2l1 3l2 2l1 2v11l1 5l1 7l2 8l2 8l2 4l1 5l2 5l2 5l3 5l2 5l3 5l4 6l2 3l1 2l4 6l4 5l5 6l5 6l5 6l6 5l6 6l5 4l5 4l5 4l6 3l5 3l6 3l7 3l7 2l6 2l7 2l7 2l8 2l7 1l15 2h8h23l8 -1l8 -1l7 -1l8 -1l8 -2
l7 -2l8 -2l7 -3l7 -3l8 -3l7 -3l6 -4l7 -4l5 -4l3 -2l3 -2l5 -4l4 -5l5 -4l4 -5l4 -5l4 -5l3 -5l3 -4l3 -6l2 -5l5 -10l2 -5l2 -5l1 -5l2 -5l1 -4l1 -5l3 -9l1 -7l1 -8l1 -6l1 -9l1 -1l1 -2l3 -5l1 -3l2 -3l2 -4l2 -4l1 -5l2 -4l1 -5v-3v-3v-2v-3v-3l-1 -3l-1 -6l-2 -3
l-1 -4v-1l1 -1l1 -2l7 -10l6 -8l2 -5l4 -6l3 -6l3 -6l4 -8l4 -8l2 -5l2 -5l2 -5l1 -5l2 -5l1 -5l2 -9l1 -9l1 -8v-12l-1 -4v-7l-2 -7l-2 -5v-3l-2 -3l-1 -2l-1 -2l-1 -2l-2 -2l-2 -1l-1 -2h-2l-2 -1l-1 -1h-2l-2 1l-2 1l-1 1l-2 1l-1 1l-1 1l-3 3l-2 4l-3 3l-2 3l-2 4l-3 6
l-3 6h-1l-1 -1l-1 -1l-1 -2l-2 -7l-4 -8l-4 -11l-3 -5l-4 -6l-4 -6l-4 -6l-2 -3l-3 -3l-6 -6l1 -1l3 -2l13 -6l6 -3l5 -3l5 -4l5 -4l2 -2l2 -2l2 -2l1 -3l1 -2l1 -2v-3l1 -2l-1 -2v-2v-2l-1 -1l-1 -2v-1l-3 -3l-2 -3l-2 -2l-1 -1l-3 -3l-4 -2l-5 -2l-4 -2l-5 -2l-3 -1l-2 -1
l-6 -1l-6 -1l-6 -2l-7 -1h-7l-7 -1h-22l-8 1h-7l-8 1l-8 1l-8 1l-8 2l-8 2l-8 2l-7 3l-8 2l-4 2l-4 1l-2 1h-3h-6l-8 1h-3l-5 1l-3 -3l-5 -3l-6 -2l-6 -4l-4 -2l-4 -1l-9 -4l-5 -1l-5 -2l-7 -1h-4l-5 -1h-5l-6 -1h-23l-13 1l-13 1l-6 1l-13 2l-6 1l-6 2l-5 1l-5 2l-5 2l-5 2
l-4 2l-3 3l-2 2l-1 1l-2 2l-1 2l-1 1l-1 2l-1 3l-1 2v2v2v2v3l1 2v4v2l1 3l1 2l1 4l2 1l1 1l2 3l2 2l2 1l1 1l3 1l2 1l3 2l3 1h3l3 1l4 1h4h4l1 1h1v1l-1 1l-2 1l-6 5l-4 3l-4 4l-5 4l-4 6l-6 6l-2 3l-2 4l-2 4l-3 4l-2 5l-2 4l-2 5l-2 6l-2 5l-1 6h-1l-1 1l-1 -1h-1v-1v-1
l-1 -2l-1 -1l-2 -5l-2 -3l-2 -2l-2 -3l-3 -4l-2 -3l-3 -2l-3 -3l-3 -2l-4 -2l-3 -2l-4 -1h-4h-1h-1l-1 2l-1 1l-1 3l-1 2l-1 3l-1 3l-1 3l-1 7v4v12v10l1 5l1 5l1 5l1 5l2 6l2 6l2 6l2 5l3 6l3 6l3 6l4 6l4 5l4 7l4 4l4 5l5 5l2 2l3 3l4 3l4 4l6 5l5 4zM511 -159
q-91 0 -174 35q-80 34 -142 96t-96 142q-35 84 -35 175t35 174q34 80 96 142t142 96q83 35 174 35t175 -35q80 -34 142 -96t96 -142q35 -83 35 -174t-35 -175q-34 -80 -96 -142t-142 -96q-84 -35 -175 -35zM511.5 710q-114.5 0 -211.5 -56.5t-153.5 -153.5t-56.5 -211.5
t56.5 -211.5t153.5 -153.5t211.5 -56.5t211.5 56.5t153.5 153.5t56.5 211.5t-56.5 211.5t-153.5 153.5t-211.5 56.5z" />
    <glyph glyph-name="uniE643" unicode="&#xe643;" 
d="M512 796q100 0 190.5 -38.5t159 -107t107 -159t38.5 -191.5t-38.5 -191.5t-107 -159t-159 -106.5t-191 -38t-191 38t-159.5 107q-68 68 -106.5 158.5t-38.5 191.5t38.5 191.5t106.5 158.5q69 69 159.5 107.5t191.5 38.5zM849 638q-66 66 -153 103t-184.5 37t-184.5 -37
t-153 -103t-103 -153.5t-37 -184.5t37 -184.5t103 -153.5t153 -103t184.5 -37t184.5 37t153 103t103 153.5t37 184.5t-37 184.5t-103 153.5zM415 567q-94 0 -161 -57.5t-67 -139.5q0 -85 72 -143l-19 -36q-5 -9 2.5 -17t17.5 -4l58 22q46 -19 97 -19q-3 18 -3 35
q0 84 68 143q66 57 158 58q-16 68 -78.5 113t-144.5 45zM499 481q-12 0 -20 -8t-8 -19.5t8 -19.5t19.5 -8t19.5 8t8 19.5t-8 19.5t-19 8zM333 481q-12 0 -20 -8t-8 -19.5t8 -19.5t19.5 -8t19.5 8t8 19.5t-8 19.5t-19 8zM639 379q81 0 139 -50t58 -121q0 -74 -62 -124l16 -31
q4 -8 -2 -15t-15 -4l-50 20q-40 -17 -84 -17q-82 0 -139.5 50t-57.5 121t57.5 121t139.5 50zM566 304q10 0 17 -7t7 -17t-7 -17t-17 -7t-17 7t-7 17t7 17t17 7zM710 304q10 0 17 -7t7 -17t-7 -17t-17 -7t-17 7t-7 17t7 17t17 7z" />
    <glyph glyph-name="uniE644" unicode="&#xe644;" 
d="M445 221q-76 -3 -129 30t-53 83t53 86.5t129 39.5q77 4 130 -25t53 -79q0 -51 -54 -91.5t-129 -43.5zM660 440q-11 2 -14 6.5t-1 7.5l3 3q2 5 5.5 12t2.5 25t-13 30q-20 15 -46.5 14t-49.5 -9l-23 -9q-22 -7 -24 1.5t4 27.5q0 11 -1.5 19.5t-7.5 18.5t-15.5 15.5t-28 5
t-43.5 -8.5q-24 -9 -49 -25.5t-44 -34.5t-34.5 -34.5t-23.5 -27.5l-8 -11q-23 -30 -34.5 -60.5t-10.5 -45.5v-15q5 -42 27.5 -72.5t58.5 -47.5t71.5 -25.5t76.5 -11.5q82 -6 166 27.5t114 96.5q12 25 12 46.5t-7.5 35t-20 24t-23 15.5t-19.5 7zM459 334q-11 -9 -17 1
q-7 11 4 19q12 10 19 -1q6 -10 -6 -19zM399.5 282.5q-14.5 -1.5 -24.5 5.5t-10 19t9.5 22.5t23.5 11.5q16 2 26 -6t10 -20t-10 -21.5t-24.5 -11zM425 416q-90 -11 -90 -107q0 -3 0.5 -8.5t7.5 -18t19 -18.5q46 -23 86.5 -14t65.5 41q12 15 13 38t-7.5 44t-33.5 34t-61 9z
M709 481q15 0 17 14v2q3 31 -5 52t-22 28.5t-28.5 11t-25.5 1.5l-10 -1q-7 0 -12 -5t-5 -12t5 -11.5t12 -4.5q22 4 34.5 0t17.5 -13.5t6.5 -19.5t0.5 -18l-1 -7q0 -7 4.5 -12t11.5 -5zM697 675q-35 9 -83 0l-1 -1h-1l-1 -1q-17 -5 -17 -23q0 -10 7 -17t17 -7q13 1 22 5
q7 3 26.5 0.5t48 -17.5t45.5 -43q18 -41 7 -80q-5 -12 -5 -23q0 -10 7 -16t17.5 -6t16 4t7.5 16q12 51 8 87t-25.5 62t-45 40t-50.5 20zM512 895q-101 0 -192.5 -39.5t-158 -106t-106 -158t-39.5 -192.5t39.5 -192.5t106 -158t158 -105.5t192.5 -39t192.5 39t158 105.5
t106 158t39.5 192.5t-39.5 192.5t-106 158t-158 106t-192.5 39.5zM511 868q95 0 182 -37t149.5 -100t99.5 -149.5t37 -181.5t-37 -182t-99.5 -149.5t-149.5 -99.5t-182 -37t-181.5 37t-149.5 99.5t-100 149.5t-37 182t37 181.5t100 149.5t149.5 100t181.5 37z" />
    <glyph glyph-name="uniE645" unicode="&#xe645;" 
d="M960 493q-29 164 -155 270.5t-293 106.5q-110 0 -206 -50t-159.5 -136t-82.5 -191q-29 -24 -46.5 -64t-17.5 -83q0 -62 32.5 -114.5t82.5 -52.5q16 0 27 5t18 17.5t11 24t6 35t2 38.5v47v44q0 14 -1.5 36.5t-4 34t-7.5 24.5t-13 19t-19 8q29 131 134.5 216t243.5 85
q137 0 242.5 -84t135.5 -211q-11 -3 -19 -9.5t-13 -19.5t-7.5 -24t-4 -33.5t-1.5 -36.5v-43q0 -41 0.5 -60t3.5 -42.5t9 -38.5q-91 -141 -244 -179q-14 20 -41.5 32.5t-60.5 12.5q-48 0 -81.5 -21t-33.5 -50t33.5 -49.5t81.5 -20.5t81.5 20.5t33.5 49.5q76 19 141 68
t109 118q6 -6 32 -6q50 0 82.5 52t32.5 114q0 39 -17.5 78t-46.5 63z" />
    <glyph glyph-name="uniE646" unicode="&#xe646;" 
d="M795 241q-74 0 -120 -59l-301 149q6 21 6 42q0 27 -9 52l309 153q45 -53 115 -53q63 0 107.5 44.5t44.5 107t-44.5 107t-107.5 44.5t-107.5 -44.5t-44.5 -106.5q0 -22 6 -43l-312 -155q-45 46 -109 46q-63 0 -107.5 -44.5t-44.5 -107.5t44.5 -107.5t107.5 -44.5
q72 0 117 55l303 -150q-5 -18 -5 -37q0 -62 44.5 -106.5t107.5 -44.5t107.5 44.5t44.5 107t-44.5 107t-107.5 44.5zM795 768q38 0 64.5 -27t26.5 -64.5t-26.5 -64.5t-64.5 -27h-4v1h-4h-4h-1q-2 1 -3 1q-2 0 -4 1q-2 0 -4 1q-2 0 -4 1q-2 0 -3 1q-2 1 -4 1q-2 1 -3 2h-1
q-1 1 -3 2q-4 2 -7 4q-1 1 -3 2t-3 2q-2 1 -3 2v0q-26 22 -32 55v0q0 4 -1 8v3v1v4q0 37 26.5 64t64.5 27zM228 282q-38 0 -64.5 26.5t-26.5 64.5t26.5 64.5t64.5 26.5t64.5 -26.5t26.5 -64.5t-26.5 -64.5t-64.5 -26.5zM795 -2q-38 0 -64.5 27t-26.5 64v5v4q4 38 34 62
q1 2 3 3l4 2l3 3l4 2l4 2l4 2q2 0 4 1t4 1v1q2 0 5 1q2 0 4 1h4q3 1 5 1h4q3 1 5 1q38 0 64.5 -27t26.5 -64.5t-26.5 -64.5t-64.5 -27zM795 -2z" />
    <glyph glyph-name="uniE647" unicode="&#xe647;" horiz-adv-x="1127" 
d="M283 322q-2 2 -3.5 4t-1.5 5q2 -4 5 -9zM841 3q-1 0 -1.5 -1t-1.5 -2q1 2 3 3zM956 125q-47 0 -86.5 -23.5t-62.5 -62.5l-472 186q6 21 6 43q0 31 -11 60l402 215q24 -32 60 -50t77 -18q70 0 120 49.5t50 119t-50 119t-120.5 49.5t-120.5 -49.5t-50 -119.5q0 -32 12 -61
l-402 -215q-23 33 -59.5 51.5t-77.5 18.5q-71 0 -121 -49.5t-50 -119.5t50 -119t121 -49q46 0 85 22.5t62 60.5l472 -186q-5 -20 -5 -40q0 -70 50 -119.5t120.5 -49.5t120.5 49.5t50 119t-50 119t-120 49.5zM868 766q51 0 87.5 -36t36.5 -87t-36.5 -87.5t-88 -36.5t-88 36.5
t-36.5 87.5t36.5 87t88.5 36zM170 144q-51 0 -87.5 36.5t-36.5 87.5t36.5 87t87.5 36q34 0 62.5 -16.5t45.5 -43.5q2 -4 5 -9q12 -26 12 -54q0 -51 -36.5 -87.5t-88.5 -36.5zM955 -167q-52 0 -88.5 36t-36.5 87q0 23 8 44q1 2 1 3q15 35 46 56t70 21q51 0 88 -36.5t37 -87.5
t-37 -87t-88 -36z" />
    <glyph glyph-name="uniE648" unicode="&#xe648;" 
d="M937 324q2 -5 2 -10v-362q0 -33 -27.5 -56.5t-59.5 -23.5h-217h-261h-217q-32 0 -59.5 23.5t-27.5 56.5v362q0 5 2 10q-33 37 -52 94.5t-19 107.5l208 354h591l208 -354q0 -50 -19.5 -107.5t-51.5 -94.5v0zM122 -48q0 -10 11.5 -18.5t23.5 -8.5h695q12 0 23.5 8.5
t11.5 18.5v333q-17 -6 -35 -6q-77 0 -125.5 35.5t-48.5 105.5q0 -70 -48.5 -106t-125 -36t-125 36t-48.5 106q0 -70 -49 -105.5t-125 -35.5q-18 0 -35 6v-333v0zM770 827h-5h-526l-186 -315q4 -63 36 -121.5t68 -58.5q20 0 38.5 3t38.5 11.5t32.5 27.5t12.5 46q0 22 15 37.5
t36.5 15.5t37 -15.5t15.5 -37.5q0 -27 12 -46t32 -27.5t38.5 -12t39 -3.5t38.5 3.5t38.5 12t32.5 27.5t12 46q0 22 15 37.5t37 15.5t37 -15.5t15 -37.5q0 -27 12 -46t32.5 -27.5t38.5 -11.5t39 -3q36 0 67.5 58.5t36.5 121.5l-186 315v0zM850 535h-691q-11 0 -18.5 7.5
t-7.5 18.5t7.5 19t18.5 8h691q10 0 18 -8t8 -19t-8 -18.5t-18 -7.5v0zM850 535z" />
    <glyph glyph-name="uniE649" unicode="&#xe649;" 
d="M799 836h-575l-164 -282v-114q0 -49 28 -84l1 -311q0 -47 34 -80t83 -33h611q49 0 84 33t35 80v311q28 33 28 84v114zM879 192v-34v-56v-33v-24q0 -23 -18.5 -39.5t-43.5 -16.5h-611q-25 0 -43 16.5t-18 39.5v24v121v138h55q25 0 55 19t44 49q17 -30 46.5 -49t59.5 -19
q33 0 64 17.5t43 44.5q11 -27 41.5 -44.5t62.5 -17.5q31 0 60.5 20t46.5 52q23 -38 43 -55t57 -17h56v-136v0zM908 440q-1 -27 -26.5 -41.5t-58.5 -14.5q-34 0 -60.5 17.5t-26.5 38.5h-26q0 -20 -30.5 -38t-63.5 -18q-32 0 -61.5 18t-29.5 38h-27q0 -20 -29.5 -38t-61.5 -18
q-36 0 -65 15.5t-29 40.5h-26q0 -21 -27 -39t-59 -18q-35 0 -59.5 15t-24.5 42v57h791v-57v0zM118 554l131 226h525l134 -226h-790z" />
    <glyph glyph-name="uniE64A" unicode="&#xe64a;" 
d="M952 247q1 -5 1 -10v-368q0 -33 -27.5 -57t-60.5 -24h-221h-264h-221q-33 0 -60.5 24t-27.5 57v368q0 5 2 10q-34 38 -53.5 96.5t-19.5 109.5l212 359h600l212 -359q0 -51 -19.5 -109.5t-52.5 -96.5v0zM124 -131q0 -10 11.5 -18.5t23.5 -8.5h706q12 0 23.5 8.5t11.5 18.5
v339q-17 -7 -35 -7q-78 0 -127 36.5t-49 107.5q0 -71 -49.5 -107.5t-127.5 -36.5t-127.5 36.5t-49.5 107.5q0 -71 -49 -107.5t-127 -36.5q-18 0 -35 7v-339v0zM782 758h-5h-535l-189 -319q5 -65 37 -124.5t69 -59.5q21 0 39.5 3.5t39 12t32.5 27.5t12 47q0 22 15.5 38
t37.5 16t37.5 -16t15.5 -38q0 -28 12.5 -47t33 -28t39 -12.5t39.5 -3.5t39.5 3.5t39 12.5t33 28t12.5 47q0 22 15.5 38t37 16t37 -16t15.5 -38q0 -28 12.5 -47t33 -27.5t39 -12t39.5 -3.5q37 0 69 59.5t36 124.5l-188 319v0zM863 462h-702q-11 0 -18.5 8t-7.5 19t7.5 19
t18.5 8h702q11 0 18.5 -8t7.5 -19.5t-7.5 -19t-18.5 -7.5v0z" />
    <glyph glyph-name="uniE64B" unicode="&#xe64b;" horiz-adv-x="1027" 
d="M1009 513l-122 281q-5 19 -25 19h-701q-20 0 -25 -19l-121 -281l-2 -14q0 -78 56 -133t135 -55q46 0 86.5 20.5t67.5 55.5q27 -35 67.5 -55.5t86.5 -20.5t86.5 20.5t67.5 56.5q27 -36 67.5 -56.5t86.5 -20.5q79 0 135 55t56 133q0 10 -2 14zM820 356q-43 0 -79.5 23
t-53.5 62q-6 13 -21 13t-20 -13q-18 -39 -54.5 -62.5t-79.5 -23.5t-79.5 23.5t-53.5 61.5q-6 14 -21 14t-21 -13q-17 -39 -53.5 -62.5t-79.5 -23.5q-60 0 -103 42t-43 102l116 269h675l116 -268q0 -60 -42.5 -102t-102.5 -42zM910 246q-9 0 -16 -6.5t-7 -15.5v-222h-751v221
q0 9 -6.5 15.5t-16 6.5t-16 -6.5t-6.5 -15.5v-240q0 -11 7.5 -18t17.5 -7h791q11 0 18.5 7t7.5 18v241q0 9 -7 15.5t-16 6.5zM779 574h-535q-9 0 -15.5 -6.5t-6.5 -16t6.5 -16t15.5 -6.5h535q9 0 16 6.5t7 16t-7 16t-16 6.5z" />
    <glyph glyph-name="uniE64C" unicode="&#xe64c;" 
d="M365 172h403q15 0 27.5 9t17.5 23l77 333q6 13 -7 38q-4 9 -15.5 14t-22.5 5h-551l-19 84h-121q-11 0 -18.5 -5.5t-7.5 -14.5t8 -17t18 -8h83l38 -167v-12l58 -237q-21 -11 -36 -33.5t-15 -49.5q0 -32 25 -58q-10 -10 -17.5 -27t-7.5 -31q0 -33 24.5 -58t58.5 -25
t58.5 22t24.5 55q0 6 -3 19t-3 19h275q-7 -12 -7 -38q0 -34 25 -58.5t58.5 -24.5t58.5 24.5t25 58.5q0 33 -21.5 55.5t-55.5 27.5h-6h-429q-15 0 -27 12t-12 27q13 38 39 38zM787 50q15 0 27 -12t12 -26q0 -32 -39 -32q-14 0 -26 12t-12 26t11.5 23t26.5 9zM365 -20
q-15 0 -27 12t-12 26.5t12 26.5t27 12v0q14 0 26 -12t12 -27q0 -18 -11.5 -28t-26.5 -10zM768 217h-384l-51 224h486zM845 550l-13 -64h-512l-13 57z" />
    <glyph glyph-name="uniE64D" unicode="&#xe64d;" 
d="M511.5 747q-90.5 0 -173.5 -35.5t-143 -95t-95 -142.5t-35 -174t35 -173.5t95 -142.5t143 -95.5t173.5 -35.5t173.5 35.5t143 95.5t95 142.5t35.5 173.5t-35 174t-95.5 142.5t-143 95t-173.5 35.5zM452 100h-1v0l-38 38l-179 180l38 37l179 -179l318 318l38 -38z
M512 -147q-91 0 -175 35q-80 34 -142 96t-96 142q-35 83 -35 174t35 174q34 81 96 142.5t142 95.5q84 36 175 36t174 -36q80 -34 142 -95.5t96 -142.5q35 -83 35 -174t-35 -174q-34 -80 -96 -142t-142 -96q-83 -35 -174 -35zM511.5 747q-90.5 0 -173 -35.5t-142.5 -95.5
t-95.5 -142.5t-35.5 -173.5t35.5 -173.5t95.5 -142.5t142.5 -95t173 -35t173.5 35t142.5 95t95 142.5t35.5 173.5t-35.5 173.5t-95 142.5t-142.5 95.5t-173.5 35.5zM451 99l-38 39l-180 180l39 38l179 -180l318 318l39 -38zM414 138l37 -37l355 355l-37 37l-318 -318
l-179 180l-38 -37z" />
    <glyph glyph-name="uniE64E" unicode="&#xe64e;" 
d="M511.5 747q-90.5 0 -173.5 -35.5t-143 -95t-95 -142.5t-35 -174t35 -173.5t95 -142.5t143 -95.5t173.5 -35.5t173.5 35.5t143 95.5t95 142.5t35.5 173.5t-35 174t-95.5 142.5t-143 95t-173.5 35.5zM452 100h-1v0l-38 38l-179 180l38 37l179 -179l318 318l38 -38z
M512 -147q-91 0 -175 35q-80 34 -142 96t-96 142q-35 83 -35 174t35 174q34 81 96 142.5t142 95.5q84 36 175 36t174 -36q80 -34 142 -95.5t96 -142.5q35 -83 35 -174t-35 -174q-34 -80 -96 -142t-142 -96q-83 -35 -174 -35zM511.5 747q-90.5 0 -173 -35.5t-142.5 -95.5
t-95.5 -142.5t-35.5 -173.5t35.5 -173.5t95.5 -142.5t142.5 -95t173 -35t173.5 35t142.5 95t95 142.5t35.5 173.5t-35.5 173.5t-95 142.5t-142.5 95.5t-173.5 35.5zM451 99l-38 39l-180 180l39 38l179 -180l318 318l39 -38zM414 138l37 -37l355 355l-37 37l-318 -318
l-179 180l-38 -37z" />
    <glyph glyph-name="uniE64F" unicode="&#xe64f;" 
d="M511.5 843q-93.5 0 -178 -36.5t-146 -98t-98 -146t-36.5 -178t36.5 -178t98 -146t146 -98t178 -36.5t178 36.5t146 98t98 146t36.5 178t-36.5 178t-98 146t-146 98t-178 36.5zM410 130l-204 204l51 50l153 -152l356 356l51 -51z" />
    <glyph glyph-name="uniE650" unicode="&#xe650;" 
d="M535 593q18 39 64 107q36 54 53 66t80 28l20 4q80 14 128 -4q15 -5 4 -15q-38 -36 -64 -75q-1 -2 -3 -4.5t-2.5 -3.5t-1.5 -4.5t1 -6.5q21 14 105 58q11 5 15.5 2.5t8.5 -12.5q11 -32 11 -60q0 -53 -23 -97.5t-64 -91.5q-4 -4 -15 -7q-71 -17 -122 -46q0 -4 1.5 -5t4.5 0
h4q7 0 32 0.5t32 -2.5q-43 -42 -131 -101q-175 -119 -469 -258q-20 -10 -32 -23q-29 -32 -61 -65q-11 -11 -23.5 -9.5t-18.5 14.5q-7 15 10 33q126 137 130 141q74 78 111 116t102.5 101t125 110t122.5 88q1 4 -0.5 4.5t-8.5 -0.5q-10 -4 -11 -4q-96 -40 -206 -126
q-135 -104 -280 -266q2 7 6 20q17 54 28 87.5t33 88t50.5 101t63.5 86.5q3 -8 5 -14q19 35 49 65q58 47 112 83l42 27q-20 -88 -18 -130z" />
    <glyph glyph-name="uniE651" unicode="&#xe651;" 
d="M66 141q-2 -6 0.5 -9t8.5 -1l158 44q6 1 7 5.5t-3 8.5l-103 110q-4 4 -8.5 3t-6.5 -7zM182 362q-10 -10 0 -20l106 -109q10 -10 21 0l375 357q11 10 1 21l-103 109q-10 11 -21 1zM715 846q-10 11 -20 1l-69 -61q-10 -10 0 -20l108 -110q11 -10 21 0l63 60q10 10 0 21z
M63 65h834v-67h-834v67z" />
    <glyph glyph-name="uniE652" unicode="&#xe652;" horiz-adv-x="1025" 
d="M975.5 847.5q-18.5 18.5 -38 30t-34 14.5t-26.5 3.5t-18 -0.5l-7 -2l-510 -510l-86 -255l255 86l510 510q1 3 2 7t1 17.5t-4 27.5t-15 33.5t-29.5 38zM960 704l-448 -448l-192 -64l64 192l448 448q4 2 11 2.5t29.5 -9t47 -34t34.5 -46t8 -31.5zM520 303l-19 -19l-59 -20
q-8 17 -20.5 30t-29.5 20l20 59l19 19q31 4 62 -27q13 -14 20 -29.5t7 -23.5v-9zM896 -64h-832v832h384l64 64h-512v-106v-740v-114h960v128v384l-64 -64v-384z" />
    <glyph glyph-name="uniE653" unicode="&#xe653;" 
d="M279 256h243v243h-243v-243zM333 444h135v-134h-135v134zM521.5 767q-98.5 0 -188.5 -38.5t-154.5 -103t-103 -154.5t-38.5 -188.5t38.5 -188.5t103 -155t154.5 -103.5t188.5 -38.5t188.5 38.5t155 103.5t103.5 155t38.5 188.5t-38.5 188.5t-103.5 154.5t-155 103
t-188.5 38.5zM226 552h350v-349h-350v349zM845 283v-54h-108v-54h108v-107h-54v53h-108v-80h108v-54h-296v54h-54v54h-54v-108h-162v161h54v-107h54v107h243v-53h-81v-54h134v80h54v162h54v107h54v-53h54v-54zM845 445h-54v53h-108v-53h54v-54h-54v-54h-54v161v55h216v-54
v-54z" />
    <glyph glyph-name="uniE654" unicode="&#xe654;" 
d="M512 811q-104 0 -199 -40.5t-163.5 -109t-109 -163t-40.5 -198.5t40.5 -199t109 -163.5t163.5 -109t199 -40.5t198.5 40.5t163 109t109 163.5t40.5 199t-40.5 198.5t-109 163t-163 109t-198.5 40.5zM444 45q-38 -38 -93 -38t-93.5 38.5t-38.5 93.5t38 93l133 133
q38 38 93 38t94 -39l4 -4l2 -2q3 -3 5 -7h1h-1q11 -21 -5.5 -37.5t-37.5 -5.5q0 -1 -13 12q-20 20 -48.5 20t-48.5 -20l-133 -133q-20 -20 -20 -48.5t20 -48.5t48.5 -20t48.5 20l80 80q44 -22 89 -1zM766 367l-132 -132q-39 -39 -93.5 -39t-93.5 39l-4 4l-2 2q-3 3 -6 7v1
q-11 20 5.5 37t37.5 5q1 1 14 -11q20 -21 48.5 -21t48.5 20l132 133q21 20 21 48.5t-21 48.5q-20 21 -48.5 21t-48.5 -21l-80 -79q-44 21 -88 1l123 123q39 39 93.5 39t93.5 -39t39 -93.5t-39 -93.5z" />
    <glyph glyph-name="uniE655" unicode="&#xe655;" 
d="M512 -198q-101 0 -194 39q-89 38 -158 107t-107 158q-39 93 -39 194t39 194q38 89 107 158t158 107q93 39 194 39t194 -39q89 -38 158 -107t107 -158q39 -93 39 -194t-39 -194q-38 -89 -107 -158t-158 -107q-93 -39 -194 -39v0zM512 764q-94 0 -180 -37q-84 -35 -148 -99
t-99 -148q-37 -86 -37 -180t37 -180q35 -84 99 -148t148 -99q86 -37 180 -37t180 37q84 35 148 99t99 148q37 86 37 180t-37 180q-35 84 -99 148t-148 99q-86 37 -180 37v0zM444 172zM639 415q11 0 24 -1q-16 77 -89 127.5t-167 50.5q-105 0 -179.5 -62.5t-74.5 -153.5
q0 -100 102 -171l-25 -76l88 44q65 -13 89 -13q11 0 24 1q-8 27 -8 53q0 84 63 142.5t153 58.5v0zM502 484q15 0 23.5 -8.5t8.5 -23t-8.5 -23t-23.5 -8.5t-26.5 9t-11.5 22.5t11.5 22.5t26.5 9v0zM325 421q-15 0 -26.5 9t-11.5 22.5t11.5 22.5t26.5 9q14 0 22.5 -8.5
t8.5 -23t-8.5 -23t-22.5 -8.5v0zM871 218q0 75 -65 129.5t-151 54.5q-90 0 -153 -54t-63 -130.5t63 -130.5t153 -54q26 0 76 13l70 -38l-19 63q89 67 89 147v0zM585 249q-10 0 -17.5 8t-7.5 17.5t7.5 17.5t17.5 8q14 0 23 -7.5t9 -17.5t-9 -18t-23 -8v0zM725 249
q-10 0 -18 8t-8 17.5t8 17.5t18 8q13 0 22 -7.5t9 -17.5t-9 -18t-22 -8v0zM725 249z" />
    <glyph glyph-name="uniE656" unicode="&#xe656;" 
d="M674 8q-74 -31 -155 -31t-154 31q-72 30 -127 85t-85 126q-31 74 -31 155t31 155q30 71 85 126t127 85q73 31 154 31t155 -31q71 -30 126 -85t85 -126q32 -74 32 -155t-32 -155q-30 -71 -85 -126t-126 -85zM945 554q-36 82 -99.5 146t-146.5 99q-86 36 -180 36t-179 -36
q-83 -35 -147 -99t-99 -146q-36 -86 -36 -180t36 -180q35 -82 99 -146t147 -99q85 -37 179 -37t180 37q83 35 146.5 99t99.5 146q36 86 36 180t-36 180zM793 208q-49 65 -121 101.5t-153 36.5t-153 -36.5t-120 -101.5q-7 -9 -5.5 -20.5t10.5 -18t20 -5t18 10.5
q41 55 101.5 85.5t129 30.5t129 -30.5t101.5 -85.5q6 -9 17.5 -11t20 5t10.5 18.5t-5 20.5zM425 520q0 -38 26.5 -65t64 -27t63.5 27t26 65t-26 64.5t-63.5 26.5t-64 -26.5t-26.5 -64.5v0v0v0zM515 666q60 0 102 -43t42 -103.5t-42 -103t-101.5 -42.5t-102 42.5t-42.5 103
t42.5 103.5t101.5 43v0v0z" />
    <glyph glyph-name="uniE657" unicode="&#xe657;" 
d="M512 896q-104 0 -199 -40.5t-163.5 -109t-109 -163.5t-40.5 -199t40.5 -199t109 -163.5t163.5 -109t199 -40.5t199 40.5t163.5 109t109 163.5t40.5 199t-40.5 199t-109 163.5t-163.5 109t-199 40.5zM815 125h-254l-31 132l17 34l-31 18l-38 -18l17 -34l-20 -132h-266
q0 15 0.5 50.5t0.5 41.5q4 10 12.5 17.5t16 11t22.5 8.5l21 7q9 4 43 18.5t51 21.5q11 3 27 7q8 6 26 43l12 3q-2 8 -8.5 15.5t-7.5 11.5q-1 7 -2.5 23.5t-2.5 25.5h-3l-6 2t-4 1q-5 3 -8 9t-5 15t-2.5 15t-1.5 17t-1 12q0 2 4.5 11t2.5 17q-24 111 48 134q79 32 128 2
l12 -11l19 -3q4 -2 8 -8t6 -11l2 -5q6 -22 5 -43l-2 -25q-2 -25 -1 -32q0 -4 7 -18q7 -15 2 -45q-3 -17 -9 -24q-2 -4 -9.5 -7.5t-9.5 -7.5q-3 -6 -4 -20t-2.5 -19t-9 -14t-7.5 -19q7 -1 16 -2q18 -37 26 -43q17 -4 27 -7l51 -21q34 -14 43 -19l21 -7q15 -5 22.5 -8.5
t16 -11t12.5 -17.5q0 -6 0.5 -41.5t0.5 -50.5z" />
    <glyph glyph-name="uniE658" unicode="&#xe658;" 
d="M512 -126q-104 0 -198.5 40.5t-162.5 108.5t-108.5 162.5t-40.5 198.5t40.5 198.5t108.5 162.5t162.5 108.5t198.5 40.5t198.5 -40.5t162.5 -108.5t108.5 -162.5t40.5 -198.5t-40.5 -198.5t-108.5 -162.5t-162.5 -108.5t-198.5 -40.5zM512 849q-94 0 -180.5 -37
t-148.5 -99t-99 -148.5t-37 -180.5t37 -180.5t99 -148.5t148.5 -99t180.5 -37t180.5 37t148.5 99t99 148.5t37 180.5t-37 180.5t-99 148.5t-148.5 99t-180.5 37zM283 230h1q3 -49 69 -82.5t158 -33.5q93 0 159 34t69 83v1v2v7q0 61 -35.5 112t-95.5 77q4 4 7.5 8.5t6.5 8.5
q5 8 9 16q2 4 5 11q2 5 3 12q3 8 4 16q1 5 1 11q0 1 1 3v6q0 55 -39 94.5t-94.5 39.5t-95 -39.5t-39.5 -94.5q0 -2 1 -6v-3q1 -6 1 -11l4 -16q2 -7 4 -12q2 -7 5 -11q4 -8 9 -15q2 -4 6 -9t8 -9q-61 -26 -96.5 -77t-35.5 -112v-11z" />
    <glyph glyph-name="uniE659" unicode="&#xe659;" 
d="M472 667q-92 0 -170 -39.5t-123.5 -107.5t-45.5 -148q0 -73 39 -137.5t108 -105.5v-95q0 -10 8 -14q4 -2 8 -2t8 3l44 28l2 2l49 33q37 -7 73 -7q92 0 170 39.5t123.5 107.5t45.5 148t-45.5 148t-123.5 107.5t-170 39.5zM826 296q34 -46 34 -100q0 -48 -26.5 -89.5
t-73.5 -67.5q-8 -5 -8 -14v-47l-5 4q-1 0 -2 1l-42 28q-5 4 -12 2q-56 -11 -106.5 0t-91.5 41l-19 -25q45 -33 101.5 -46t115.5 -2l35 -23q1 -1 2 -1l31 -21q4 -3 9 -3q4 0 7 2q9 4 9 14v67q50 31 78.5 78.5t28.5 101.5q0 65 -40 119z" />
    <glyph glyph-name="uniE65A" unicode="&#xe65a;" 
d="M1024 613q0 64 -64 64h-896q-28 0 -46 -18t-18 -46v-576q0 -28 18 -46t46 -18h896q27 0 45.5 17t18.5 47v576zM128 549h384v-128h-384v128zM896 101h-768v64h768v-64zM896 229h-768v64h768v-64z" />
    <glyph glyph-name="uniE65B" unicode="&#xe65b;" 
d="M512.5 -147q-90.5 0 -173.5 35.5t-143 95.5t-95 142.5t-35 173.5t35 173.5t95 142.5t143 95.5t173.5 35.5t173 -35.5t142.5 -95.5t95.5 -142.5t35.5 -173.5t-35.5 -173.5t-95.5 -142.5t-142.5 -95.5t-173 -35.5zM512.5 718q-113.5 0 -210 -56t-152.5 -152.5t-56 -210
t56 -209.5t152.5 -152t210 -56t210 56t152.5 152t56 209.5t-56 210t-152.5 152.5t-210 56zM310 444q0 29 20.5 50t50 21t50 -21t20.5 -50t-20.5 -49.5t-50 -20.5t-50 20.5t-20.5 49.5zM586 444q0 29 20.5 50t50 21t50 -21t20.5 -50t-20.5 -49.5t-50 -20.5t-50 20.5
t-20.5 49.5zM264 256q0 -49 17 -90t45.5 -68t66 -46t78.5 -23.5t82.5 -0.5t79.5 22.5t68 45t48.5 68.5t20.5 92h-506z" />
    <glyph glyph-name="uniE65C" unicode="&#xe65c;" 
d="M510.5 887q-102.5 0 -196 -40t-161.5 -108t-108 -161.5t-40 -196.5t40 -196.5t108 -161.5t161.5 -108t196 -40t196 40t161 108t107.5 161.5t40 196.5t-40 196.5t-107.5 161.5t-161 108t-196 40zM511.5 -99q-97.5 0 -186.5 38t-153 102.5t-102 153t-38 186.5t38 186.5
t102 153t153 102.5t186.5 38t186 -38t152.5 -102.5t102 -153t38 -186.5t-38 -186.5t-102 -153t-152.5 -102.5t-186 -38zM551 669l-2 -3q-9 -11 -8.5 -24.5t10.5 -23.5q48 -49 74.5 -112t26.5 -134q0 -70 -26 -132.5t-73 -110.5q-9 -10 -9.5 -23.5t8.5 -24.5
q10 -12 25.5 -12.5t26.5 10.5q57 58 89 134.5t32 160.5q0 85 -32 161.5t-90 135.5q-11 11 -26.5 10t-25.5 -12zM476 369q0 -68 -38 -125q-7 -11 -5.5 -24t11.5 -22q12 -10 27.5 -7.5t23.5 14.5q50 75 50 165q0 97 -57 175q-9 13 -24.5 14t-27.5 -9v-1q-10 -9 -11 -22t7 -23
q44 -60 44 -135zM340 372zM292 372q-3 7 -3 14q0 21 15 36t36 15t36 -15t15 -36q0 -7 -3 -14q3 -7 3 -15q0 -21 -15 -35.5t-36 -14.5t-36 14.5t-15 35.5q0 8 3 15z" />
    <glyph glyph-name="uniE65D" unicode="&#xe65d;" horiz-adv-x="1028" 
d="M542 613h-55l1 -202h-203v-54h203v-202h54v202h202v54h-202v202zM513.5 896q-104.5 0 -199.5 -40.5t-164 -109t-109.5 -163.5t-40.5 -199t40.5 -199t109.5 -163.5t164 -109t199.5 -40.5t200 40.5t164 109t109.5 163.5t41 199t-41 199t-109.5 163.5t-164 109t-200 40.5z
M513.5 -93q-97.5 0 -186 37.5t-152.5 101.5t-102 152.5t-38 185.5t38 185.5t102 152.5t152.5 101.5t186 37.5t186.5 -37.5t153 -101.5t102 -152.5t38 -185.5t-38 -185.5t-102 -152.5t-153 -101.5t-186.5 -37.5z" />
    <glyph glyph-name="uniE65E" unicode="&#xe65e;" 
d="M748 64l-83 132q-5 7 -13.5 9t-16.5 -3l-42 -36q-15 -6 -30.5 6.5t-44.5 48.5l-71 113q-28 56 -6 73l49 26q8 5 10 13.5t-3 16.5l-83 132q-5 8 -13.5 9.5t-16.5 -2.5l-43 -34q-10 -9 -19 -24t-14.5 -45t-2.5 -67t24 -93.5t60 -119.5q40 -65 82.5 -111t76 -67t64.5 -30.5
t49.5 -8t29.5 7.5l51 23v1q7 4 9 13t-3 16v1zM510.5 737q-90.5 0 -173.5 -35.5t-143 -95.5t-95.5 -142.5t-35.5 -173.5t35.5 -174t95.5 -143t143 -95.5t173.5 -35.5t173.5 35.5t143 95.5t95.5 143t35.5 174t-35.5 173.5t-95.5 142.5t-143 95.5t-173.5 35.5zM510.5 -109
q-108.5 0 -200.5 53.5t-145.5 145t-53.5 200t53.5 200.5t145.5 145.5t200.5 53.5t200 -53.5t145 -145.5t53.5 -200.5t-53.5 -200t-145 -145t-200 -53.5z" />
    <glyph glyph-name="uniE65F" unicode="&#xe65f;" 
d="M434 398l4 -2q21 -9 37 -24q15 -17 23.5 -36t8.5 -42v-31q0 -8 -6 -14t-15 -6h-281q-8 0 -14.5 6t-6.5 14v31q0 22 9 42q7 19 24 36q17 18 40 26l-3 3q-38 38 -38 91.5t38 91.5t92 38q53 0 91 -38t38 -91.5t-38 -91.5zM600 339q-9 0 -15 6t-6 15t6 15t15 6h214q8 0 14 -6
t6 -15t-6 -15t-14 -6h-214zM600 430q-9 0 -15 6t-6 15q0 8 6 14.5t15 6.5h214q8 0 14 -6.5t6 -14.5q0 -9 -6 -15t-14 -6h-214zM600 521q-9 0 -15 6t-6 14.5t6 14.5t15 6h214q8 0 14 -6t6 -14.5t-6 -14.5t-14 -6h-214zM98 733h2h826q13 0 23.5 -10t10.5 -24v-1v-629
q0 -14 -10.5 -24t-23.5 -10h-1h-137q-14 0 -24 10t-10 24v1v54h-57v-55q0 -14 -10 -24t-24 -10h-1h-301q-14 0 -24 10t-10 24v1v54h-57v-55q0 -14 -10 -24t-24 -10h-1h-137q-14 0 -24 10t-10 24v1v629q0 14 10 24t24 10zM891 664h-758v-560h68v54v1q0 14 10 24t25 10h124h1
q15 0 25 -10t10 -24v-55h232v54v1q0 14 10 24t25 10h124h1q14 0 24 -10t10 -24v-55h69v560zM295 363q-30 0 -49 -20q-10 -10 -15 -23q-6 -13 -6 -26v-10h241v10q0 14 -6 26q-4 12 -15 23q-9 9 -22 15q-13 5 -27 5h-101zM407 554q-25 26 -61 26q-37 0 -63 -26
q-25 -26 -25 -62t25.5 -61.5t62 -25.5t61.5 25q27 26 27 62t-27 62z" />
    <glyph glyph-name="uniE660" unicode="&#xe660;" 
d="M959 387.5q0 -102.5 -60 -190t-163 -138t-225 -50.5q-100 0 -191 36l-170 -108l27 198q-54 51 -84 116t-30 136q0 103 60 190t163.5 138t225.5 51q121 0 224.5 -51t163 -138t59.5 -189.5zM213 33l108 71l17 2q37 -14 56.5 -21t52.5 -14t61 -7q105 0 196 44.5t143.5 119
t52.5 159t-52.5 158t-143.5 118t-196.5 44.5t-194.5 -44t-139.5 -118t-50.5 -159q0 -123 90 -205l18 -31zM263 405q0 -22 15.5 -37.5t37 -15.5t37 15.5t15.5 37.5t-15.5 37t-37 15t-37 -15t-15.5 -37zM471 405q0 -22 15.5 -37.5t37.5 -15.5t37.5 15.5t15.5 37.5t-15.5 37
t-37.5 15t-37.5 -15t-15.5 -37zM680 405q0 -22 15.5 -37.5t37.5 -15.5t37 15.5t15 37.5t-15 37t-37 15t-37.5 -15t-15.5 -37z" />
    <glyph glyph-name="uniE661" unicode="&#xe661;" 
d="M813 464h-238v-38h238v38zM813 307h-238v-38h238v38zM813 150h-238v-38h238v38zM67 678v-756h889v756h-889zM918 -40h-813v680h813v-680zM354 260q63 0 107.5 -45t44.5 -108h37q0 59 -32.5 107t-85.5 70q49 36 49 97q0 50 -35.5 85.5t-85 35.5t-84.5 -35.5t-35 -85.5
q0 -61 48 -97q-52 -22 -85 -70t-33 -107h38q0 63 44.5 108t107.5 45zM272 380.5q0 34.5 24 59t58 24.5t58 -24.5t24 -59t-24 -58.5t-58 -24t-58 24t-24 58.5z" />
    <glyph glyph-name="uniE662" unicode="&#xe662;" 
d="M623 63q-13 0 -22.5 9.5t-9.5 22.5v350q0 13 9.5 22.5t22.5 9.5t22.5 -9.5t9.5 -22.5v-350q0 -13 -9.5 -22.5t-22.5 -9.5zM432 63q-13 0 -22.5 9.5t-9.5 22.5v350q0 13 9.5 22.5t22.5 9.5t22.5 -9.5t9.5 -22.5v-350q0 -13 -9.5 -22.5t-22.5 -9.5zM941 604h-159v64
q0 39 -27.5 67t-67.5 28h-319q-39 0 -67 -28t-28 -67v-64h-159q-13 0 -22.5 -9.5t-9.5 -22.5t9.5 -22.5t22.5 -9.5h827q14 0 23 9.5t9 22.5t-9 22.5t-23 9.5zM337 668q0 13 9 22.5t22 9.5h319q14 0 23 -9.5t9 -22.5v-64h-382v64zM751 -128h-446q-40 0 -68 28t-28 68v477
q0 14 9.5 23t22.5 9t22.5 -9t9.5 -23v-477q0 -14 9.5 -23t22.5 -9h446q13 0 22 9t9 23v476q0 13 9.5 22.5t22.5 9.5t22.5 -9.5t9.5 -22.5v-476q0 -40 -28 -68t-67 -28z" />
    <glyph glyph-name="uniE663" unicode="&#xe663;" 
d="M794 135l-35 36l129 129l-129 129l35 36l165 -165zM394 325h525v-50h-525v50zM731 -110h-665v820h665v-181h-51v130h-564v-718h564v130h51v-181z" />
    <glyph glyph-name="uniE664" unicode="&#xe664;" 
d="M527 480q14 0 23 9.5t9 22.5v236q0 13 -9 22.5t-23 9.5q-13 0 -22 -9.5t-9 -22.5v-236q0 -13 9 -22.5t22 -9.5zM885 465.5q-11 43.5 -31.5 82t-49 72t-65.5 59.5q-24 -1 -37.5 -9t-16 -20.5t-1 -23.5t6.5 -21q57 -40 90.5 -102t33.5 -135q0 -119 -84 -203t-203 -84
t-203 84t-84 203q0 70 31 130.5t84 100.5q5 10 5.5 21.5t-2.5 24t-16 20.5t-35 8q-34 -26 -62 -59t-47 -71t-29.5 -80t-10.5 -85q0 -77 29 -144t79 -117t117 -79t143 -29q77 0 144 29t116.5 79t79 117t29.5 144q0 44 -11 87.5z" />
    <glyph glyph-name="uniE665" unicode="&#xe665;" 
d="M623 -19l-1 -13q0 -51 35.5 -86.5t86 -35.5t86 35.5t35.5 86t-35.5 86t-86.5 35.5q-31 0 -58 -15t-44 -41l-258 202q14 27 14 55q0 16 -6 35l263 205q37 -40 89 -40q51 0 86.5 36t35.5 86t-35.5 86t-86 36t-86 -36t-35.5 -86q0 -16 5 -35l-263 -205q-36 39 -89 39
q-50 0 -85.5 -35.5t-35.5 -86t35.5 -86t85.5 -35.5q40 0 74 25z" />
    <glyph glyph-name="uniE666" unicode="&#xe666;" horiz-adv-x="1336" 
d="M50 12zM1140 12zM87 33zM538 -64q138 192 308 385q81 92 142 155q49 50 120 116q131 124 191 160l-62 82q-85 -54 -243 -162q-47 -33 -109 -78q-30 -22 -105 -79q-113 -86 -224 -182l-199 188l-233 -184zM1336 33z" />
    <glyph glyph-name="uniE667" unicode="&#xe667;" 
d="M956 893h-888q-28 0 -48 -20t-20 -48v-885q0 -28 20 -48t48 -20h888q28 0 48 20t20 48v885q0 29 -20 48.5t-48 19.5zM651 364q-56 -88 -99 -164.5t-58 -107.5t-15 -33q-140 146 -210 209q-70 64 -115 96l77 95l210 -152q10 12 28.5 33t78.5 81t122.5 114t120 96.5
t83.5 58.5l26 16l38 -38q-6 -4 -18 -12.5t-46 -37.5t-67 -62t-76.5 -85t-79.5 -107z" />
    <glyph glyph-name="uniE668" unicode="&#xe668;" 
d="M264 708q67 0 114.5 -47t47.5 -114v-162h-162q-67 0 -114 47.5t-47 114.5t47 114t114 47zM265 759q-89 0 -151 -62t-62 -150.5t62 -150.5t151 -62h164q20 0 34 14t14 34v165q0 88 -62 150t-150 62v0zM265 210h158v-159q0 -65 -46 -111.5t-112 -46.5t-112 46.5t-46 112
t46 112t112 46.5zM265 263q-89 0 -151 -62t-62 -150t62 -150.5t150.5 -62.5t150.5 62.5t62 150.5v164q0 20 -14 34t-34 14h-164v0zM762.5 709q66.5 0 113.5 -47t47 -113.5t-47 -113.5t-113 -47h-161v161q0 66 47 113t113.5 47zM760 759q-88 0 -150 -62t-62 -150v-165
q0 -20 14 -34t34 -14h164q89 0 151 62t62 150.5t-62 150.5t-151 62v0zM760 210q66 0 113 -46.5t47 -112.5t-47 -113t-113 -47t-112.5 47t-46.5 113v159h159zM760 263h-164q-20 0 -34 -14t-14 -34v-164q0 -88 62 -150.5t150.5 -62.5t150.5 62.5t62 150.5t-62 150t-151 62v0z
M760 263z" />
    <glyph glyph-name="uniE669" unicode="&#xe669;" 
d="M656.5 570q-24.5 0 -41.5 -17t-17 -41.5t17 -42t41.5 -17.5t41.5 17.5t17 42t-17 41.5t-41.5 17zM512 896q-139 0 -257 -68.5t-186.5 -186.5t-68.5 -257t68.5 -257t186.5 -186.5t257 -68.5t257 68.5t186.5 186.5t68.5 257t-68.5 257t-186.5 186.5t-257 68.5zM818 349
l-343 -343q-12 -13 -30 -13t-31 13l-262 262q-13 13 -13 31t13 31l343 343q14 15 51 15h10h224q22 0 37.5 -15.5t15.5 -37.5v-229q0 -42 -15 -57z" />
    <glyph glyph-name="uniE66A" unicode="&#xe66a;" 
d="M1024 671l-89 88l-580 -573l-266 263l-89 -85l266 -267l89 -88l89 88z" />
    <glyph glyph-name="uniE66B" unicode="&#xe66b;" 
d="M950 813q-54 -8 -127 -8q-224 0 -314 91q-90 -90 -319 -90q-30 0 -59.5 1.5t-44.5 3.5l-14 2q-1 -42 -2 -107t4 -191t19 -164q33 -84 93 -174t122 -155t118.5 -107.5t84.5 -42.5q27 0 83.5 42t119 107t124.5 155t94 173q15 39 19.5 165t2.5 191.5t-4 107.5v0zM889 614
q0 -199 -17 -241q-29 -74 -83 -154q-50 -74 -112 -141q-56 -62 -109 -103q-36 -28 -57 -37q-21 8 -57 36q-52 41 -108 103q-61 68 -110 142q-54 81 -82 155q-8 21 -13 90q-5 60 -6 150q-1 64 0 129q29 -2 55 -2q103 0 184 19q79 18 134 53q55 -36 133 -54q80 -19 182 -19
q31 0 65 2q1 -66 1 -128zM889 614zM720 497h-164v164q0 6 -4 10t-10 4h-60q-6 0 -10 -4t-4 -10v-164h-164q-6 0 -10 -4t-4 -10v-60q0 -5 4 -9.5t10 -4.5h164v-164q0 -5 4 -9.5t10 -4.5h60q6 0 10 4.5t4 9.5v164h164q6 0 10 4.5t4 9.5v60q0 6 -4 10t-10 4zM720 497z" />
  </font>
</defs>
</svg>
